<svg width="24" height="25" viewBox="0 0 24 25" fill="none" xmlns="http://www.w3.org/2000/svg">
<path d="M5.85 17.6C6.7 16.95 7.65 16.4373 8.7 16.062C9.75 15.6873 10.85 15.5 12 15.5C13.15 15.5 14.25 15.6873 15.3 16.062C16.35 16.4373 17.3 16.95 18.15 17.6C18.7333 16.9167 19.1877 16.1417 19.513 15.275C19.8377 14.4083 20 13.4833 20 12.5C20 10.2833 19.221 8.39567 17.663 6.837C16.1043 5.279 14.2167 4.5 12 4.5C9.78333 4.5 7.896 5.279 6.338 6.837C4.77933 8.39567 4 10.2833 4 12.5C4 13.4833 4.16267 14.4083 4.488 15.275C4.81267 16.1417 5.26667 16.9167 5.85 17.6ZM12 13.5C11.0167 13.5 10.1873 13.1627 9.512 12.488C8.83733 11.8127 8.5 10.9833 8.5 10C8.5 9.01667 8.83733 8.18733 9.512 7.512C10.1873 6.83733 11.0167 6.5 12 6.5C12.9833 6.5 13.8127 6.83733 14.488 7.512C15.1627 8.18733 15.5 9.01667 15.5 10C15.5 10.9833 15.1627 11.8127 14.488 12.488C13.8127 13.1627 12.9833 13.5 12 13.5ZM12 22.5C10.6167 22.5 9.31667 22.2373 8.1 21.712C6.88333 21.1873 5.825 20.475 4.925 19.575C4.025 18.675 3.31267 17.6167 2.788 16.4C2.26267 15.1833 2 13.8833 2 12.5C2 11.1167 2.26267 9.81667 2.788 8.6C3.31267 7.38333 4.025 6.325 4.925 5.425C5.825 4.525 6.88333 3.81233 8.1 3.287C9.31667 2.76233 10.6167 2.5 12 2.5C13.3833 2.5 14.6833 2.76233 15.9 3.287C17.1167 3.81233 18.175 4.525 19.075 5.425C19.975 6.325 20.6873 7.38333 21.212 8.6C21.7373 9.81667 22 11.1167 22 12.5C22 13.8833 21.7373 15.1833 21.212 16.4C20.6873 17.6167 19.975 18.675 19.075 19.575C18.175 20.475 17.1167 21.1873 15.9 21.712C14.6833 22.2373 13.3833 22.5 12 22.5Z" fill="#598576"/>
</svg>
