<svg width="24" height="25" viewBox="0 0 24 25" fill="none" xmlns="http://www.w3.org/2000/svg">
<path d="M12 23.5L9 20.5H5C4.45 20.5 3.979 20.3043 3.587 19.913C3.19567 19.521 3 19.05 3 18.5V4.5C3 3.95 3.19567 3.479 3.587 3.087C3.979 2.69567 4.45 2.5 5 2.5H19C19.55 2.5 20.021 2.69567 20.413 3.087C20.8043 3.479 21 3.95 21 4.5V18.5C21 19.05 20.8043 19.521 20.413 19.913C20.021 20.3043 19.55 20.5 19 20.5H15L12 23.5ZM13.55 13.05L17 11.5L13.55 9.95L12 6.5L10.45 9.95L7 11.5L10.45 13.05L12 16.5L13.55 13.05Z" fill="#598576"/>
</svg>
