<svg width="24" height="25" viewBox="0 0 24 25" fill="none" xmlns="http://www.w3.org/2000/svg">
<path d="M12 10.5H17V8.5H12V10.5ZM12 16.5H17V14.5H12V16.5ZM9 11.5C9.55 11.5 10.021 11.304 10.413 10.912C10.8043 10.5207 11 10.05 11 9.5C11 8.95 10.8043 8.479 10.413 8.087C10.021 7.69567 9.55 7.5 9 7.5C8.45 7.5 7.97933 7.69567 7.588 8.087C7.196 8.479 7 8.95 7 9.5C7 10.05 7.196 10.5207 7.588 10.912C7.97933 11.304 8.45 11.5 9 11.5ZM9 17.5C9.55 17.5 10.021 17.3043 10.413 16.913C10.8043 16.521 11 16.05 11 15.5C11 14.95 10.8043 14.479 10.413 14.087C10.021 13.6957 9.55 13.5 9 13.5C8.45 13.5 7.97933 13.6957 7.588 14.087C7.196 14.479 7 14.95 7 15.5C7 16.05 7.196 16.521 7.588 16.913C7.97933 17.3043 8.45 17.5 9 17.5ZM5 21.5C4.45 21.5 3.979 21.3043 3.587 20.913C3.19567 20.521 3 20.05 3 19.5V5.5C3 4.95 3.19567 4.479 3.587 4.087C3.979 3.69567 4.45 3.5 5 3.5H19C19.55 3.5 20.021 3.69567 20.413 4.087C20.8043 4.479 21 4.95 21 5.5V19.5C21 20.05 20.8043 20.521 20.413 20.913C20.021 21.3043 19.55 21.5 19 21.5H5Z" fill="#598576"/>
</svg>
