<svg width="24" height="25" viewBox="0 0 24 25" fill="none" xmlns="http://www.w3.org/2000/svg">
<path d="M10.95 15.5L16.6 9.85L15.2 8.4L10.95 12.65L8.85 10.55L7.4 11.95L10.95 15.5ZM12 23.5L4.8 18.1C4.55 17.9167 4.35433 17.6833 4.213 17.4C4.071 17.1167 4 16.8167 4 16.5V4.5C4 3.95 4.196 3.479 4.588 3.087C4.97933 2.69567 5.45 2.5 6 2.5H18C18.55 2.5 19.021 2.69567 19.413 3.087C19.8043 3.479 20 3.95 20 4.5V16.5C20 16.8167 19.9293 17.1167 19.788 17.4C19.646 17.6833 19.45 17.9167 19.2 18.1L12 23.5Z" fill="#598576"/>
</svg>
