<svg width="24" height="25" viewBox="0 0 24 25" fill="none" xmlns="http://www.w3.org/2000/svg">
<path d="M12 21.4999L10.55 20.1999C7.93333 17.8666 5.854 15.8372 4.312 14.1119C2.77067 12.3872 2 10.5666 2 8.6499C2 7.08324 2.525 5.7749 3.575 4.7249C4.625 3.6749 5.93333 3.1499 7.5 3.1499C8.38333 3.1499 9.21667 3.33724 10 3.7119C10.7833 4.08724 11.45 4.5999 12 5.2499C12.55 4.5999 13.2167 4.08724 14 3.7119C14.7833 3.33724 15.6167 3.1499 16.5 3.1499C18.0667 3.1499 19.375 3.6749 20.425 4.7249C21.475 5.7749 22 7.08324 22 8.6499C22 10.5666 21.2293 12.3872 19.688 14.1119C18.146 15.8372 16.0667 17.8666 13.45 20.1999L12 21.4999Z" fill="#598576"/>
</svg>
