<svg width="19" height="20" viewBox="0 0 19 20" fill="none" xmlns="http://www.w3.org/2000/svg">
<path d="M2.3 14H15.95L14.6266 12.5069C14.2746 12.1098 14.2927 11.5072 14.668 11.132C15.0779 10.7221 15.7489 10.7438 16.1314 11.1794L17.6279 12.8838C17.9483 13.2487 18.125 13.7178 18.125 14.2034V18C18.125 18.55 17.9293 19.021 17.538 19.413C17.146 19.8043 16.675 20 16.125 20H2.125C1.575 20 1.104 19.8043 0.712 19.413C0.320667 19.021 0.125 18.55 0.125 18V14.2047C0.125 13.7183 0.302249 13.2485 0.623573 12.8834L2.16859 11.1277C2.55123 10.6929 3.22155 10.6715 3.63111 11.0811C4.00672 11.4567 4.02445 12.06 3.67155 12.457L2.3 14ZM15.575 7.39997L10.575 12.4C10.1917 12.7833 9.721 12.9706 9.163 12.962C8.60433 12.954 8.13333 12.7583 7.75 12.375L4.225 8.84997C3.84167 8.46663 3.65433 7.99597 3.663 7.43797C3.671 6.8793 3.86667 6.4083 4.25 6.02497L9.15 1.12497C9.53333 0.741634 10.0083 0.541634 10.575 0.524967C11.1417 0.508301 11.6167 0.691634 12 1.07497L15.525 4.59997C15.9083 4.9833 16.1083 5.44997 16.125 5.99997C16.1417 6.54997 15.9583 7.01663 15.575 7.39997ZM14.125 6.02497L10.6 2.49997L5.65 7.44997L9.175 10.975L14.125 6.02497ZM2.125 18H16.125V16H2.125V18Z" fill="#598576"/>
</svg>
