<svg width="24" height="25" viewBox="0 0 24 25" fill="none" xmlns="http://www.w3.org/2000/svg">
<mask id="path-1-inside-1_3321_2166" fill="white">
<rect x="8" y="14.5" width="8" height="8" rx="1"/>
</mask>
<rect x="8" y="14.5" width="8" height="8" rx="1" stroke="#598576" stroke-width="4" mask="url(#path-1-inside-1_3321_2166)"/>
<path d="M20.5389 5.3084C21.4289 5.70499 22 6.65509 22 7.75037V10.5567C22 10.5577 22 10.5586 21.9999 10.5593C21.9956 10.5648 21.981 10.5805 21.9498 10.5949C21.8731 10.6305 21.8098 10.6143 21.7788 10.5924C19.0128 8.64423 15.6386 7.5 12 7.5C8.36145 7.5 4.98716 8.64423 2.22119 10.5924C2.19021 10.6143 2.12687 10.6305 2.05019 10.5949C2.01905 10.5805 2.00438 10.5648 2.00005 10.5593C2.00002 10.5586 2 10.5577 2 10.5567V7.75037C2 6.65509 2.57115 5.70499 3.46111 5.3084C6.06866 4.1464 8.9575 3.5 12 3.5C15.0425 3.5 17.9313 4.1464 20.5389 5.3084Z" stroke="#598576" stroke-width="2"/>
<path d="M9 15.5L4 9.5" stroke="#598576" stroke-width="2"/>
<path d="M15 15.5L20 9.5" stroke="#598576" stroke-width="2"/>
</svg>
