<svg width="24" height="25" viewBox="0 0 24 25" fill="none" xmlns="http://www.w3.org/2000/svg">
<path d="M12 22.5C10.6167 22.5 9.31667 22.2373 8.1 21.712C6.88333 21.1873 5.825 20.475 4.925 19.575C4.025 18.675 3.31267 17.6167 2.788 16.4C2.26267 15.1833 2 13.8833 2 12.5C2 11.1167 2.26267 9.81667 2.788 8.6C3.31267 7.38333 4.025 6.325 4.925 5.425C5.825 4.525 6.88333 3.81233 8.1 3.287C9.31667 2.76233 10.6167 2.5 12 2.5C13.3833 2.5 14.6833 2.76233 15.9 3.287C17.1167 3.81233 18.175 4.525 19.075 5.425C19.975 6.325 20.6873 7.38333 21.212 8.6C21.7373 9.81667 22 11.1167 22 12.5C22 13.8833 21.7373 15.1833 21.212 16.4C20.6873 17.6167 19.975 18.675 19.075 19.575C18.175 20.475 17.1167 21.1873 15.9 21.712C14.6833 22.2373 13.3833 22.5 12 22.5ZM11.1 19.5H12.85V18.25C13.6833 18.1 14.4 17.775 15 17.275C15.6 16.775 15.9 16.0333 15.9 15.05C15.9 14.35 15.7 13.7083 15.3 13.125C14.9 12.5417 14.1 12.0333 12.9 11.6C11.9 11.2667 11.2083 10.975 10.825 10.725C10.4417 10.475 10.25 10.1333 10.25 9.7C10.25 9.26667 10.4043 8.925 10.713 8.675C11.021 8.425 11.4667 8.3 12.05 8.3C12.5833 8.3 13 8.42933 13.3 8.688C13.6 8.946 13.8167 9.26667 13.95 9.65L15.55 9C15.3667 8.41667 15.0293 7.90833 14.538 7.475C14.046 7.04167 13.5 6.8 12.9 6.75V5.5H11.15V6.75C10.3167 6.93333 9.66667 7.3 9.2 7.85C8.73333 8.4 8.5 9.01667 8.5 9.7C8.5 10.4833 8.72933 11.1167 9.188 11.6C9.646 12.0833 10.3667 12.5 11.35 12.85C12.4 13.2333 13.1293 13.575 13.538 13.875C13.946 14.175 14.15 14.5667 14.15 15.05C14.15 15.6 13.954 16.004 13.562 16.262C13.1707 16.5207 12.7 16.65 12.15 16.65C11.6 16.65 11.1127 16.479 10.688 16.137C10.2627 15.7957 9.95 15.2833 9.75 14.6L8.1 15.25C8.33333 16.05 8.696 16.696 9.188 17.188C9.67933 17.6793 10.3167 18.0167 11.1 18.2V19.5Z" fill="#598576"/>
</svg>
