<svg width="24" height="25" viewBox="0 0 24 25" fill="none" xmlns="http://www.w3.org/2000/svg">
<path d="M7 18.5C5.9 18.5 4.95833 18.1083 4.175 17.325C3.39167 16.5417 3 15.6 3 14.5C3 13.4 3.39167 12.4583 4.175 11.675C4.95833 10.8917 5.9 10.5 7 10.5C8.1 10.5 9.04167 10.8917 9.825 11.675C10.6083 12.4583 11 13.4 11 14.5C11 15.6 10.6083 16.5417 9.825 17.325C9.04167 18.1083 8.1 18.5 7 18.5ZM11 10.5C9.9 10.5 8.95833 10.1083 8.175 9.325C7.39167 8.54167 7 7.6 7 6.5C7 5.4 7.39167 4.45833 8.175 3.675C8.95833 2.89167 9.9 2.5 11 2.5C12.1 2.5 13.0417 2.89167 13.825 3.675C14.6083 4.45833 15 5.4 15 6.5C15 7.6 14.6083 8.54167 13.825 9.325C13.0417 10.1083 12.1 10.5 11 10.5ZM17 21.5C15.9 21.5 14.9583 21.1083 14.175 20.325C13.3917 19.5417 13 18.6 13 17.5C13 16.4 13.3917 15.4583 14.175 14.675C14.9583 13.8917 15.9 13.5 17 13.5C18.1 13.5 19.0417 13.8917 19.825 14.675C20.6083 15.4583 21 16.4 21 17.5C21 18.6 20.6083 19.5417 19.825 20.325C19.0417 21.1083 18.1 21.5 17 21.5Z" fill="#598576"/>
</svg>
