<svg width="24" height="25" viewBox="0 0 24 25" fill="none" xmlns="http://www.w3.org/2000/svg">
<path d="M8 11.5C8.28333 11.5 8.521 11.404 8.713 11.212C8.90433 11.0207 9 10.7833 9 10.5C9 10.2167 8.90433 9.979 8.713 9.787C8.521 9.59567 8.28333 9.5 8 9.5C7.71667 9.5 7.479 9.59567 7.287 9.787C7.09567 9.979 7 10.2167 7 10.5C7 10.7833 7.09567 11.0207 7.287 11.212C7.479 11.404 7.71667 11.5 8 11.5ZM12 11.5C12.2833 11.5 12.521 11.404 12.713 11.212C12.9043 11.0207 13 10.7833 13 10.5C13 10.2167 12.9043 9.979 12.713 9.787C12.521 9.59567 12.2833 9.5 12 9.5C11.7167 9.5 11.4793 9.59567 11.288 9.787C11.096 9.979 11 10.2167 11 10.5C11 10.7833 11.096 11.0207 11.288 11.212C11.4793 11.404 11.7167 11.5 12 11.5ZM16 11.5C16.2833 11.5 16.5207 11.404 16.712 11.212C16.904 11.0207 17 10.7833 17 10.5C17 10.2167 16.904 9.979 16.712 9.787C16.5207 9.59567 16.2833 9.5 16 9.5C15.7167 9.5 15.4793 9.59567 15.288 9.787C15.096 9.979 15 10.2167 15 10.5C15 10.7833 15.096 11.0207 15.288 11.212C15.4793 11.404 15.7167 11.5 16 11.5ZM2 22.5V4.5C2 3.95 2.196 3.479 2.588 3.087C2.97933 2.69567 3.45 2.5 4 2.5H20C20.55 2.5 21.021 2.69567 21.413 3.087C21.8043 3.479 22 3.95 22 4.5V16.5C22 17.05 21.8043 17.521 21.413 17.913C21.021 18.3043 20.55 18.5 20 18.5H6L2 22.5Z" fill="#598576"/>
</svg>
