<svg width="24" height="25" viewBox="0 0 24 25" fill="none" xmlns="http://www.w3.org/2000/svg">
<path d="M4.54989 19.5C3.69989 19.5 3.04156 19.2043 2.57489 18.613C2.10823 18.021 1.93323 17.3 2.04989 16.45L3.09989 8.95C3.24989 7.95 3.69589 7.125 4.43789 6.475C5.17923 5.825 6.04989 5.5 7.04989 5.5H16.9499C17.9499 5.5 18.8206 5.825 19.5619 6.475C20.3039 7.125 20.7499 7.95 20.8999 8.95L21.9499 16.45C22.0666 17.3 21.8916 18.021 21.4249 18.613C20.9582 19.2043 20.2999 19.5 19.4499 19.5C19.0999 19.5 18.7749 19.4373 18.4749 19.312C18.1749 19.1873 17.8999 19 17.6499 18.75L15.3999 16.5H8.59989L6.34989 18.75C6.09989 19 5.82489 19.1873 5.52489 19.312C5.22489 19.4373 4.89989 19.5 4.54989 19.5ZM16.9999 13.5C17.2832 13.5 17.5206 13.404 17.7119 13.212C17.9039 13.0207 17.9999 12.7833 17.9999 12.5C17.9999 12.2167 17.9039 11.979 17.7119 11.787C17.5206 11.5957 17.2832 11.5 16.9999 11.5C16.7166 11.5 16.4792 11.5957 16.2879 11.787C16.0959 11.979 15.9999 12.2167 15.9999 12.5C15.9999 12.7833 16.0959 13.0207 16.2879 13.212C16.4792 13.404 16.7166 13.5 16.9999 13.5ZM14.9999 10.5C15.2832 10.5 15.5209 10.404 15.7129 10.212C15.9042 10.0207 15.9999 9.78333 15.9999 9.5C15.9999 9.21667 15.9042 8.979 15.7129 8.787C15.5209 8.59567 15.2832 8.5 14.9999 8.5C14.7166 8.5 14.4792 8.59567 14.2879 8.787C14.0959 8.979 13.9999 9.21667 13.9999 9.5C13.9999 9.78333 14.0959 10.0207 14.2879 10.212C14.4792 10.404 14.7166 10.5 14.9999 10.5ZM7.74989 13.5H9.24989V11.75H10.9999V10.25H9.24989V8.5H7.74989V10.25H5.99989V11.75H7.74989V13.5Z" fill="#598576"/>
</svg>
