<svg width="18" height="21" viewBox="0 0 18 21" fill="none" xmlns="http://www.w3.org/2000/svg">
<path d="M4 16.5H11V14.5H4V16.5ZM4 12.5H14V10.5H4V12.5ZM4 8.5H14V6.5H4V8.5ZM2 20.5C1.45 20.5 0.979 20.3043 0.587 19.913C0.195667 19.521 0 19.05 0 18.5V4.5C0 3.95 0.195667 3.479 0.587 3.087C0.979 2.69567 1.45 2.5 2 2.5H6.2C6.41667 1.9 6.77933 1.41667 7.288 1.05C7.796 0.683333 8.36667 0.5 9 0.5C9.63333 0.5 10.2043 0.683333 10.713 1.05C11.221 1.41667 11.5833 1.9 11.8 2.5H16C16.55 2.5 17.021 2.69567 17.413 3.087C17.8043 3.479 18 3.95 18 4.5V18.5C18 19.05 17.8043 19.521 17.413 19.913C17.021 20.3043 16.55 20.5 16 20.5H2ZM9 3.75C9.21667 3.75 9.396 3.679 9.538 3.537C9.67933 3.39567 9.75 3.21667 9.75 3C9.75 2.78333 9.67933 2.604 9.538 2.462C9.396 2.32067 9.21667 2.25 9 2.25C8.78333 2.25 8.60433 2.32067 8.463 2.462C8.321 2.604 8.25 2.78333 8.25 3C8.25 3.21667 8.321 3.39567 8.463 3.537C8.60433 3.679 8.78333 3.75 9 3.75Z" fill="#808080"/>
</svg>
