<svg width="22" height="20" viewBox="0 0 22 20" fill="none" xmlns="http://www.w3.org/2000/svg">
<path d="M11 19.5C10.2 18.8667 9.33333 18.375 8.4 18.025C7.46667 17.675 6.5 17.5 5.5 17.5C4.6 17.5 3.69167 17.6417 2.775 17.925C1.85833 18.2083 0.933333 18.625 0 19.175V5.05C0.75 4.51667 1.63767 4.125 2.663 3.875C3.68767 3.625 4.63333 3.5 5.5 3.5C6.46667 3.5 7.41267 3.625 8.338 3.875C9.26267 4.125 10.15 4.5 11 5V17.1C11.85 16.5667 12.7417 16.1667 13.675 15.9C14.6083 15.6333 15.55 15.5 16.5 15.5C17.1 15.5 17.6877 15.55 18.263 15.65C18.8377 15.75 19.4167 15.9 20 16.1V4.1C20.25 4.18333 20.5833 4.31667 21 4.5C21.4167 4.68333 21.75 4.86667 22 5.05V19.175C21.0667 18.625 20.1417 18.2083 19.225 17.925C18.3083 17.6417 17.4 17.5 16.5 17.5C15.5 17.5 14.5333 17.675 13.6 18.025C12.6667 18.375 11.8 18.8667 11 19.5ZM13 14.5V5L18 0V10L13 14.5ZM9 16.125V6.225C8.45 5.99167 7.87933 5.81267 7.288 5.688C6.696 5.56267 6.1 5.5 5.5 5.5C4.88333 5.5 4.28333 5.55833 3.7 5.675C3.11667 5.79167 2.55 5.96667 2 6.2V16.125C2.58333 15.9083 3.16267 15.75 3.738 15.65C4.31267 15.55 4.9 15.5 5.5 15.5C6.1 15.5 6.68733 15.55 7.262 15.65C7.83733 15.75 8.41667 15.9083 9 16.125ZM9 16.125C8.41667 15.9083 7.83733 15.75 7.262 15.65C6.68733 15.55 6.1 15.5 5.5 15.5C4.9 15.5 4.31267 15.55 3.738 15.65C3.16267 15.75 2.58333 15.9083 2 16.125V6.2C2.55 5.96667 3.11667 5.79167 3.7 5.675C4.28333 5.55833 4.88333 5.5 5.5 5.5C6.1 5.5 6.696 5.56267 7.288 5.688C7.87933 5.81267 8.45 5.99167 9 6.225V16.125Z" fill="#808080"/>
</svg>
