<svg width="22" height="17" viewBox="0 0 22 17" fill="none" xmlns="http://www.w3.org/2000/svg">
<path d="M5.5 16.5C3.98333 16.5 2.68767 15.975 1.613 14.925C0.537667 13.875 0 12.5917 0 11.075C0 9.775 0.391667 8.61667 1.175 7.6C1.95833 6.58333 2.98333 5.93333 4.25 5.65C4.66667 4.11667 5.5 2.875 6.75 1.925C8 0.975 9.41667 0.5 11 0.5C12.95 0.5 14.604 1.179 15.962 2.537C17.3207 3.89567 18 5.55 18 7.5C19.15 7.63333 20.1043 8.129 20.863 8.987C21.621 9.84567 22 10.85 22 12C22 13.25 21.5627 14.3127 20.688 15.188C19.8127 16.0627 18.75 16.5 17.5 16.5H5.5Z" fill="#808080"/>
</svg>
