<svg width="16" height="21" viewBox="0 0 16 21" fill="none" xmlns="http://www.w3.org/2000/svg">
<path d="M8 20.5C7.45 20.5 6.97933 20.3043 6.588 19.913C6.196 19.521 6 19.05 6 18.5H10C10 19.05 9.80433 19.521 9.413 19.913C9.021 20.3043 8.55 20.5 8 20.5ZM4 17.5V15.5H12V17.5H4ZM4.25 14.5C3.1 13.8167 2.18767 12.9 1.513 11.75C0.837667 10.6 0.5 9.35 0.5 8C0.5 5.91667 1.22933 4.146 2.688 2.688C4.146 1.22933 5.91667 0.5 8 0.5C10.0833 0.5 11.854 1.22933 13.312 2.688C14.7707 4.146 15.5 5.91667 15.5 8C15.5 9.35 15.1627 10.6 14.488 11.75C13.8127 12.9 12.9 13.8167 11.75 14.5H4.25Z" fill="#808080"/>
</svg>
