<svg width="22" height="20" viewBox="0 0 22 20" fill="none" xmlns="http://www.w3.org/2000/svg">
<path d="M3 19.5V13.5H0V7.5H3V3.5H8V0.5H14V3.5H19V7.5H22V13.5H19V19.5H3ZM8 11.5C8.41667 11.5 8.77067 11.354 9.062 11.062C9.354 10.7707 9.5 10.4167 9.5 10C9.5 9.58333 9.354 9.22933 9.062 8.938C8.77067 8.646 8.41667 8.5 8 8.5C7.58333 8.5 7.22933 8.646 6.938 8.938C6.646 9.22933 6.5 9.58333 6.5 10C6.5 10.4167 6.646 10.7707 6.938 11.062C7.22933 11.354 7.58333 11.5 8 11.5ZM14 11.5C14.4167 11.5 14.7707 11.354 15.062 11.062C15.354 10.7707 15.5 10.4167 15.5 10C15.5 9.58333 15.354 9.22933 15.062 8.938C14.7707 8.646 14.4167 8.5 14 8.5C13.5833 8.5 13.2293 8.646 12.938 8.938C12.646 9.22933 12.5 9.58333 12.5 10C12.5 10.4167 12.646 10.7707 12.938 11.062C13.2293 11.354 13.5833 11.5 14 11.5ZM7 15.5H15V13.5H7V15.5Z" fill="#808080"/>
</svg>
