<svg width="191" height="46" viewBox="0 0 191 46" fill="none" xmlns="http://www.w3.org/2000/svg">
<path fill-rule="evenodd" clip-rule="evenodd" d="M24.0225 24.3137L34.2252 34.8751C34.3476 35.0002 34.4451 35.1488 34.5122 35.3129C34.5791 35.4769 34.6142 35.6529 34.6154 35.831C34.6166 36.009 34.5839 36.1856 34.5191 36.3506C34.4544 36.5156 34.3589 36.6657 34.238 36.7925L33.4894 37.5647C33.279 37.793 33.0011 37.942 32.6997 37.9882C32.5005 38.0156 32.298 37.9951 32.108 37.9282C31.9178 37.8611 31.7453 37.7495 31.6038 37.6021L19.145 24.7052C18.9282 24.4812 18.7565 24.2155 18.6392 23.9228C18.5219 23.6302 18.4616 23.3163 18.4616 22.9995C18.4616 22.6826 18.5219 22.3689 18.6392 22.0762C18.7565 21.7836 18.9282 21.5177 19.145 21.2939L31.6038 8.39699C31.7252 8.27114 31.8693 8.1713 32.028 8.10318C32.1867 8.03506 32.3568 8 32.5285 8C32.7003 8 32.8704 8.03506 33.0291 8.10318C33.1878 8.1713 33.3319 8.27114 33.4534 8.39699L34.2252 9.2092C34.3467 9.33485 34.4432 9.48407 34.509 9.64835C34.5749 9.81262 34.6086 9.9887 34.6086 10.1665C34.6086 10.3444 34.5749 10.5205 34.509 10.6847C34.4432 10.849 34.3467 10.9982 34.2252 11.1239L24.0225 21.688C23.6878 22.0371 23.5001 22.509 23.5001 23.0009C23.5001 23.4926 23.6878 23.9645 24.0225 24.3137ZM10.5925 21.6992L0.393719 11.135C0.269964 11.0098 0.171437 10.8605 0.103854 10.6956C0.0362705 10.5308 0.00097689 10.3536 1.99929e-05 10.1745C-0.000936903 9.99542 0.0324644 9.81788 0.0982818 9.65224C0.1641 9.4866 0.261029 9.33616 0.383438 9.20962L1.12919 8.43467C1.34156 8.20787 1.61969 8.05919 1.92123 8.01126C2.12018 7.98456 2.32241 8.00549 2.51232 8.07244C2.70224 8.13938 2.8748 8.25054 3.01671 8.39738L15.4707 21.2944C15.6873 21.5183 15.8591 21.7841 15.9764 22.0768C16.0935 22.3695 16.1538 22.6832 16.1538 23.0002C16.1538 23.317 16.0935 23.6306 15.9764 23.9234C15.8591 24.216 15.6873 24.4819 15.4707 24.7058L3.01671 37.6028C2.89515 37.7287 2.75084 37.8286 2.59199 37.8968C2.43314 37.9649 2.26288 38 2.09094 38C1.91901 38 1.74874 37.9649 1.58991 37.8968C1.43106 37.8286 1.28674 37.7287 1.16519 37.6028L0.393719 36.8039C0.272111 36.6781 0.175643 36.5285 0.109826 36.3641C0.0440088 36.1995 0.0101358 36.0233 0.0101358 35.8451C0.0101358 35.6671 0.0440088 35.4908 0.109826 35.3263C0.175643 35.1619 0.272111 35.0123 0.393719 34.8864L10.5925 24.3249C10.927 23.9757 11.1147 23.5039 11.1147 23.012C11.1147 22.5202 10.927 22.0483 10.5925 21.6992Z" fill="#000000"/>
<path d="M62.535 9.36222H59.8787C59.803 8.92661 59.6633 8.54072 59.4597 8.20455C59.2561 7.86364 59.0028 7.57481 58.6997 7.33807C58.3967 7.10133 58.0511 6.92377 57.6628 6.8054C57.2793 6.68229 56.865 6.62074 56.4199 6.62074C55.6292 6.62074 54.9284 6.8196 54.3176 7.21733C53.7068 7.61032 53.2286 8.18797 52.883 8.95028C52.5373 9.70786 52.3645 10.6335 52.3645 11.7273C52.3645 12.84 52.5373 13.7775 52.883 14.5398C53.2334 15.2973 53.7116 15.8703 54.3176 16.2585C54.9284 16.642 55.6268 16.8338 56.4128 16.8338C56.8484 16.8338 57.2556 16.777 57.6344 16.6634C58.0179 16.545 58.3612 16.3722 58.6642 16.1449C58.972 15.9176 59.23 15.6383 59.4384 15.3068C59.6514 14.9754 59.7982 14.5966 59.8787 14.1705L62.535 14.1847C62.4355 14.8759 62.2201 15.5246 61.8887 16.1307C61.562 16.7367 61.1335 17.2718 60.6031 17.7358C60.0728 18.1951 59.4526 18.5549 58.7424 18.8153C58.0321 19.071 57.2438 19.1989 56.3773 19.1989C55.0989 19.1989 53.9578 18.9029 52.954 18.3111C51.9502 17.7192 51.1595 16.8646 50.5818 15.7472C50.0042 14.6297 49.7154 13.2898 49.7154 11.7273C49.7154 10.16 50.0066 8.82008 50.5889 7.70739C51.1713 6.58996 51.9644 5.73532 52.9682 5.14347C53.972 4.55161 55.1084 4.25568 56.3773 4.25568C57.187 4.25568 57.9398 4.36932 58.6358 4.59659C59.3318 4.82386 59.9521 5.15767 60.4966 5.59801C61.0411 6.03362 61.4886 6.56866 61.8389 7.20312C62.1941 7.83286 62.4261 8.55256 62.535 9.36222ZM66.53 23.0909C66.1796 23.0909 65.8553 23.0625 65.557 23.0057C65.2634 22.9536 65.029 22.892 64.8539 22.821L65.4505 20.8182C65.8245 20.9271 66.1583 20.9792 66.4519 20.9744C66.7454 20.9697 67.0035 20.8774 67.226 20.6974C67.4533 20.5223 67.6451 20.2287 67.8013 19.8168L68.0215 19.2273L64.0655 8.09091H66.7928L69.307 16.3295H69.4206L71.9419 8.09091H74.6763L70.3084 20.321C70.1048 20.8987 69.8349 21.3935 69.4987 21.8054C69.1626 22.2221 68.7506 22.5393 68.263 22.7571C67.78 22.9796 67.2023 23.0909 66.53 23.0909ZM76.5691 19V4.45455H79.1401V9.89489H79.2466C79.3792 9.62973 79.5662 9.34801 79.8077 9.04972C80.0492 8.74669 80.3759 8.48864 80.7878 8.27557C81.1997 8.05777 81.7253 7.94886 82.3645 7.94886C83.2073 7.94886 83.9673 8.1643 84.6443 8.59517C85.3262 9.02131 85.8659 9.65341 86.2637 10.4915C86.6661 11.3248 86.8674 12.3475 86.8674 13.5597C86.8674 14.7576 86.6709 15.7756 86.2779 16.6136C85.8849 17.4517 85.3498 18.0909 84.6728 18.5312C83.9957 18.9716 83.2286 19.1918 82.3716 19.1918C81.7466 19.1918 81.2281 19.0876 80.8162 18.8793C80.4043 18.6709 80.0728 18.42 79.8219 18.1264C79.5757 17.8281 79.3839 17.5464 79.2466 17.2812H79.0975V19H76.5691ZM79.0904 13.5455C79.0904 14.2509 79.1898 14.8688 79.3887 15.3991C79.5923 15.9295 79.8835 16.3437 80.2622 16.642C80.6458 16.9356 81.1098 17.0824 81.6543 17.0824C82.2225 17.0824 82.6983 16.9309 83.0818 16.6278C83.4654 16.3201 83.7542 15.901 83.9483 15.3707C84.1472 14.8357 84.2466 14.2273 84.2466 13.5455C84.2466 12.8684 84.1496 12.267 83.9554 11.7415C83.7613 11.2159 83.4725 10.804 83.0889 10.5057C82.7054 10.2074 82.2272 10.0582 81.6543 10.0582C81.105 10.0582 80.6387 10.2027 80.2551 10.4915C79.8716 10.7803 79.5804 11.1851 79.3816 11.706C79.1874 12.2268 79.0904 12.84 79.0904 13.5455ZM93.8826 19.2131C92.7889 19.2131 91.8443 18.9858 91.0488 18.5312C90.2581 18.072 89.6497 17.4233 89.2235 16.5852C88.7974 15.7424 88.5843 14.7505 88.5843 13.6094C88.5843 12.4872 88.7974 11.5024 89.2235 10.6548C89.6544 9.80256 90.2557 9.13968 91.0275 8.66619C91.7993 8.18797 92.706 7.94886 93.7477 7.94886C94.42 7.94886 95.0545 8.05777 95.6511 8.27557C96.2524 8.48864 96.7827 8.82008 97.242 9.26989C97.706 9.7197 98.0706 10.2926 98.3357 10.9886C98.6009 11.6799 98.7335 12.5038 98.7335 13.4602V14.2486H89.7917V12.5156H96.269C96.2643 12.0232 96.1577 11.5852 95.9494 11.2017C95.7411 10.8134 95.4499 10.508 95.0758 10.2855C94.7065 10.063 94.2756 9.9517 93.7832 9.9517C93.2576 9.9517 92.796 10.0795 92.3982 10.3352C92.0005 10.5862 91.6904 10.9176 91.4679 11.3295C91.25 11.7367 91.1388 12.1842 91.134 12.6719V14.1847C91.134 14.8191 91.25 15.3636 91.4821 15.8182C91.7141 16.268 92.0384 16.6136 92.4551 16.8551C92.8717 17.0919 93.3594 17.2102 93.9181 17.2102C94.2922 17.2102 94.6307 17.1581 94.9338 17.054C95.2368 16.9451 95.4996 16.7865 95.7221 16.5781C95.9447 16.3698 96.1127 16.1117 96.2264 15.804L98.6269 16.0739C98.4754 16.7083 98.1866 17.2623 97.7605 17.7358C97.3391 18.2045 96.7993 18.5691 96.1411 18.8295C95.483 19.0852 94.7302 19.2131 93.8826 19.2131ZM100.909 19V8.09091H103.401V9.90909H103.515C103.714 9.27936 104.055 8.79403 104.538 8.45312C105.025 8.10748 105.582 7.93466 106.207 7.93466C106.349 7.93466 106.508 7.94176 106.683 7.95597C106.863 7.96544 107.012 7.98201 107.13 8.00568V10.3707C107.021 10.3329 106.848 10.2997 106.612 10.2713C106.38 10.2382 106.155 10.2216 105.937 10.2216C105.468 10.2216 105.047 10.3234 104.673 10.527C104.303 10.7259 104.012 11.0028 103.799 11.358C103.586 11.7131 103.48 12.1226 103.48 12.5866V19H100.909ZM121.402 9.36222H118.746C118.67 8.92661 118.53 8.54072 118.327 8.20455C118.123 7.86364 117.87 7.57481 117.567 7.33807C117.264 7.10133 116.918 6.92377 116.53 6.8054C116.146 6.68229 115.732 6.62074 115.287 6.62074C114.496 6.62074 113.796 6.8196 113.185 7.21733C112.574 7.61032 112.096 8.18797 111.75 8.95028C111.405 9.70786 111.232 10.6335 111.232 11.7273C111.232 12.84 111.405 13.7775 111.75 14.5398C112.101 15.2973 112.579 15.8703 113.185 16.2585C113.796 16.642 114.494 16.8338 115.28 16.8338C115.716 16.8338 116.123 16.777 116.502 16.6634C116.885 16.545 117.228 16.3722 117.531 16.1449C117.839 15.9176 118.097 15.6383 118.306 15.3068C118.519 14.9754 118.665 14.5966 118.746 14.1705L121.402 14.1847C121.303 14.8759 121.087 15.5246 120.756 16.1307C120.429 16.7367 120.001 17.2718 119.47 17.7358C118.94 18.1951 118.32 18.5549 117.61 18.8153C116.899 19.071 116.111 19.1989 115.244 19.1989C113.966 19.1989 112.825 18.9029 111.821 18.3111C110.817 17.7192 110.027 16.8646 109.449 15.7472C108.871 14.6297 108.583 13.2898 108.583 11.7273C108.583 10.16 108.874 8.82008 109.456 7.70739C110.039 6.58996 110.832 5.73532 111.835 5.14347C112.839 4.55161 113.976 4.25568 115.244 4.25568C116.054 4.25568 116.807 4.36932 117.503 4.59659C118.199 4.82386 118.819 5.15767 119.364 5.59801C119.908 6.03362 120.356 6.56866 120.706 7.20312C121.061 7.83286 121.293 8.55256 121.402 9.36222ZM128.46 19.2131C127.395 19.2131 126.471 18.9787 125.69 18.5099C124.909 18.0412 124.303 17.3854 123.872 16.5426C123.446 15.6998 123.233 14.715 123.233 13.5881C123.233 12.4612 123.446 11.474 123.872 10.6264C124.303 9.77888 124.909 9.12074 125.69 8.65199C126.471 8.18324 127.395 7.94886 128.46 7.94886C129.525 7.94886 130.449 8.18324 131.23 8.65199C132.011 9.12074 132.615 9.77888 133.041 10.6264C133.472 11.474 133.687 12.4612 133.687 13.5881C133.687 14.715 133.472 15.6998 133.041 16.5426C132.615 17.3854 132.011 18.0412 131.23 18.5099C130.449 18.9787 129.525 19.2131 128.46 19.2131ZM128.474 17.1534C129.052 17.1534 129.535 16.9948 129.923 16.6776C130.311 16.3556 130.6 15.9247 130.79 15.3849C130.984 14.8452 131.081 14.2438 131.081 13.581C131.081 12.9134 130.984 12.3097 130.79 11.7699C130.6 11.2254 130.311 10.7921 129.923 10.4702C129.535 10.1482 129.052 9.98722 128.474 9.98722C127.882 9.98722 127.39 10.1482 126.997 10.4702C126.609 10.7921 126.318 11.2254 126.123 11.7699C125.934 12.3097 125.839 12.9134 125.839 13.581C125.839 14.2438 125.934 14.8452 126.123 15.3849C126.318 15.9247 126.609 16.3556 126.997 16.6776C127.39 16.9948 127.882 17.1534 128.474 17.1534ZM138.441 12.608V19H135.869V8.09091H138.327V9.9446H138.455C138.706 9.33381 139.106 8.84848 139.655 8.48864C140.209 8.12879 140.893 7.94886 141.708 7.94886C142.46 7.94886 143.116 8.10985 143.675 8.43182C144.238 8.75379 144.674 9.22017 144.982 9.83097C145.294 10.4418 145.448 11.1828 145.443 12.054V19H142.872V12.4517C142.872 11.7225 142.683 11.152 142.304 10.7401C141.93 10.3281 141.412 10.1222 140.749 10.1222C140.299 10.1222 139.899 10.2216 139.548 10.4205C139.203 10.6146 138.931 10.8963 138.732 11.2656C138.538 11.6349 138.441 12.0824 138.441 12.608ZM150.628 12.608V19H148.057V8.09091H150.514V9.9446H150.642C150.893 9.33381 151.293 8.84848 151.842 8.48864C152.396 8.12879 153.081 7.94886 153.895 7.94886C154.648 7.94886 155.304 8.10985 155.862 8.43182C156.426 8.75379 156.861 9.22017 157.169 9.83097C157.482 10.4418 157.636 11.1828 157.631 12.054V19H155.06V12.4517C155.06 11.7225 154.87 11.152 154.492 10.7401C154.118 10.3281 153.599 10.1222 152.936 10.1222C152.486 10.1222 152.086 10.2216 151.736 10.4205C151.39 10.6146 151.118 10.8963 150.919 11.2656C150.725 11.6349 150.628 12.0824 150.628 12.608ZM165.074 19.2131C163.98 19.2131 163.036 18.9858 162.24 18.5312C161.45 18.072 160.841 17.4233 160.415 16.5852C159.989 15.7424 159.776 14.7505 159.776 13.6094C159.776 12.4872 159.989 11.5024 160.415 10.6548C160.846 9.80256 161.447 9.13968 162.219 8.66619C162.991 8.18797 163.897 7.94886 164.939 7.94886C165.611 7.94886 166.246 8.05777 166.842 8.27557C167.444 8.48864 167.974 8.82008 168.433 9.26989C168.897 9.7197 169.262 10.2926 169.527 10.9886C169.792 11.6799 169.925 12.5038 169.925 13.4602V14.2486H160.983V12.5156H167.46C167.456 12.0232 167.349 11.5852 167.141 11.2017C166.932 10.8134 166.641 10.508 166.267 10.2855C165.898 10.063 165.467 9.9517 164.975 9.9517C164.449 9.9517 163.987 10.0795 163.59 10.3352C163.192 10.5862 162.882 10.9176 162.659 11.3295C162.441 11.7367 162.33 12.1842 162.325 12.6719V14.1847C162.325 14.8191 162.441 15.3636 162.673 15.8182C162.905 16.268 163.23 16.6136 163.646 16.8551C164.063 17.0919 164.551 17.2102 165.11 17.2102C165.484 17.2102 165.822 17.1581 166.125 17.054C166.428 16.9451 166.691 16.7865 166.914 16.5781C167.136 16.3698 167.304 16.1117 167.418 15.804L169.818 16.0739C169.667 16.7083 169.378 17.2623 168.952 17.7358C168.53 18.2045 167.991 18.5691 167.333 18.8295C166.674 19.0852 165.922 19.2131 165.074 19.2131ZM176.858 19.2131C175.769 19.2131 174.834 18.974 174.053 18.4957C173.277 18.0175 172.678 17.357 172.256 16.5142C171.84 15.6667 171.631 14.6913 171.631 13.5881C171.631 12.4801 171.844 11.5024 172.27 10.6548C172.697 9.80256 173.298 9.13968 174.074 8.66619C174.856 8.18797 175.779 7.94886 176.844 7.94886C177.73 7.94886 178.513 8.11222 179.195 8.43892C179.882 8.76089 180.429 9.2178 180.836 9.80966C181.243 10.3968 181.475 11.0833 181.532 11.8693H179.074C178.975 11.3437 178.738 10.9058 178.364 10.5554C177.995 10.2003 177.5 10.0227 176.88 10.0227C176.354 10.0227 175.893 10.1648 175.495 10.4489C175.097 10.7282 174.787 11.1307 174.564 11.6562C174.347 12.1818 174.238 12.8116 174.238 13.5455C174.238 14.2888 174.347 14.928 174.564 15.4631C174.782 15.9934 175.088 16.4029 175.481 16.6918C175.878 16.9759 176.345 17.1179 176.88 17.1179C177.259 17.1179 177.597 17.0469 177.895 16.9048C178.198 16.758 178.452 16.5473 178.655 16.2727C178.859 15.9981 178.999 15.6643 179.074 15.2713H181.532C181.47 16.0431 181.243 16.7273 180.85 17.3239C180.457 17.9157 179.922 18.3797 179.245 18.7159C178.568 19.0473 177.772 19.2131 176.858 19.2131ZM189.09 8.09091V10.0795H182.819V8.09091H189.09ZM184.367 5.47727H186.938V15.7188C186.938 16.0644 186.99 16.3295 187.095 16.5142C187.204 16.6941 187.346 16.8172 187.521 16.8835C187.696 16.9498 187.89 16.983 188.103 16.983C188.264 16.983 188.411 16.9711 188.543 16.9474C188.681 16.9238 188.785 16.9025 188.856 16.8835L189.289 18.8935C189.152 18.9408 188.955 18.9929 188.7 19.0497C188.449 19.1065 188.141 19.1397 187.776 19.1491C187.133 19.1681 186.552 19.071 186.036 18.858C185.52 18.6402 185.111 18.304 184.808 17.8494C184.509 17.3949 184.363 16.8267 184.367 16.1449V5.47727Z" fill="#000000"/>
<path d="M53.025 41H49.883V30.8182H53.1642C54.1519 30.8182 54.9971 31.022 55.6997 31.4297C56.4024 31.834 56.941 32.4157 57.3155 33.1747C57.69 33.9304 57.8773 34.8352 57.8773 35.8892C57.8773 36.9498 57.6884 37.8629 57.3105 38.6286C56.9327 39.3909 56.3825 39.9775 55.66 40.3885C54.9374 40.7962 54.0591 41 53.025 41ZM51.1159 39.9062H52.9455C53.7873 39.9062 54.485 39.7438 55.0385 39.419C55.592 39.0942 56.0047 38.6319 56.2764 38.032C56.5482 37.4321 56.6841 36.7178 56.6841 35.8892C56.6841 35.0672 56.5499 34.3596 56.2814 33.7663C56.013 33.1697 55.6119 32.7124 55.0783 32.3942C54.5447 32.0727 53.8801 31.9119 53.0847 31.9119H51.1159V39.9062ZM62.9881 41.1591C62.2523 41.1591 61.6176 40.9967 61.084 40.6719C60.5537 40.3438 60.1443 39.8864 59.856 39.2997C59.571 38.7098 59.4284 38.0237 59.4284 37.2415C59.4284 36.4593 59.571 35.7699 59.856 35.1733C60.1443 34.5734 60.5454 34.1061 61.0591 33.7713C61.5762 33.4332 62.1794 33.2642 62.8688 33.2642C63.2665 33.2642 63.6593 33.3305 64.047 33.4631C64.4348 33.5956 64.7878 33.8111 65.106 34.1094C65.4242 34.4044 65.6777 34.7955 65.8666 35.2827C66.0556 35.7699 66.15 36.3698 66.15 37.0824V37.5795H60.2637V36.5653H64.9568C64.9568 36.1345 64.8707 35.75 64.6983 35.4119C64.5293 35.0739 64.2873 34.8071 63.9725 34.6115C63.6609 34.416 63.293 34.3182 62.8688 34.3182C62.4014 34.3182 61.9971 34.4342 61.6557 34.6662C61.3176 34.8949 61.0575 35.1932 60.8752 35.5611C60.6929 35.929 60.6017 36.3234 60.6017 36.7443V37.4205C60.6017 37.9972 60.7012 38.486 60.9 38.8871C61.1022 39.2848 61.3823 39.5881 61.7402 39.7969C62.0982 40.0024 62.5141 40.1051 62.9881 40.1051C63.2963 40.1051 63.5747 40.062 63.8233 39.9759C64.0752 39.8864 64.2923 39.7538 64.4746 39.5781C64.6569 39.3991 64.7978 39.1771 64.8972 38.9119L66.0307 39.2301C65.9114 39.6146 65.7109 39.9527 65.4291 40.2443C65.1474 40.5327 64.7994 40.758 64.3851 40.9205C63.9708 41.0795 63.5051 41.1591 62.9881 41.1591ZM73.9467 33.3636L71.1229 41H69.9297L67.1058 33.3636H68.3785L70.4865 39.4489H70.566L72.674 33.3636H73.9467ZM87.7851 34H86.5522C86.4793 33.6454 86.3517 33.3338 86.1694 33.0653C85.9904 32.7969 85.7717 32.5715 85.5131 32.3892C85.2579 32.2036 84.9745 32.0644 84.663 31.9716C84.3514 31.8788 84.0266 31.8324 83.6886 31.8324C83.0721 31.8324 82.5136 31.9882 82.0131 32.2997C81.516 32.6113 81.1199 33.0703 80.8249 33.6768C80.5333 34.2834 80.3874 35.0275 80.3874 35.9091C80.3874 36.7907 80.5333 37.5348 80.8249 38.1413C81.1199 38.7479 81.516 39.2069 82.0131 39.5185C82.5136 39.83 83.0721 39.9858 83.6886 39.9858C84.0266 39.9858 84.3514 39.9394 84.663 39.8466C84.9745 39.7538 85.2579 39.6162 85.5131 39.4339C85.7717 39.2483 85.9904 39.0213 86.1694 38.7528C86.3517 38.4811 86.4793 38.1695 86.5522 37.8182H87.7851C87.6923 38.3385 87.5233 38.8042 87.278 39.2152C87.0328 39.6262 86.7279 39.9759 86.3633 40.2642C85.9987 40.5492 85.5894 40.7663 85.1353 40.9155C84.6845 41.0646 84.2023 41.1392 83.6886 41.1392C82.8202 41.1392 82.0479 40.9271 81.3718 40.5028C80.6957 40.0786 80.1637 39.4754 79.7759 38.6932C79.3881 37.911 79.1942 36.983 79.1942 35.9091C79.1942 34.8352 79.3881 33.9072 79.7759 33.125C80.1637 32.3428 80.6957 31.7396 81.3718 31.3153C82.0479 30.8911 82.8202 30.679 83.6886 30.679C84.2023 30.679 84.6845 30.7536 85.1353 30.9027C85.5894 31.0518 85.9987 31.2706 86.3633 31.5589C86.7279 31.844 87.0328 32.192 87.278 32.603C87.5233 33.0107 87.6923 33.4763 87.7851 34ZM92.8201 41.1591C92.0843 41.1591 91.4496 40.9967 90.916 40.6719C90.3857 40.3438 89.9764 39.8864 89.688 39.2997C89.403 38.7098 89.2605 38.0237 89.2605 37.2415C89.2605 36.4593 89.403 35.7699 89.688 35.1733C89.9764 34.5734 90.3774 34.1061 90.8911 33.7713C91.4082 33.4332 92.0114 33.2642 92.7008 33.2642C93.0985 33.2642 93.4913 33.3305 93.8791 33.4631C94.2669 33.5956 94.6198 33.8111 94.938 34.1094C95.2562 34.4044 95.5098 34.7955 95.6987 35.2827C95.8876 35.7699 95.9821 36.3698 95.9821 37.0824V37.5795H90.0957V36.5653H94.7889C94.7889 36.1345 94.7027 35.75 94.5304 35.4119C94.3613 35.0739 94.1194 34.8071 93.8045 34.6115C93.4929 34.416 93.125 34.3182 92.7008 34.3182C92.2335 34.3182 91.8291 34.4342 91.4877 34.6662C91.1497 34.8949 90.8895 35.1932 90.7072 35.5611C90.5249 35.929 90.4338 36.3234 90.4338 36.7443V37.4205C90.4338 37.9972 90.5332 38.486 90.7321 38.8871C90.9342 39.2848 91.2143 39.5881 91.5723 39.7969C91.9302 40.0024 92.3462 40.1051 92.8201 40.1051C93.1284 40.1051 93.4068 40.062 93.6554 39.9759C93.9072 39.8864 94.1243 39.7538 94.3066 39.5781C94.4889 39.3991 94.6298 39.1771 94.7292 38.9119L95.8627 39.2301C95.7434 39.6146 95.5429 39.9527 95.2612 40.2443C94.9795 40.5327 94.6314 40.758 94.2171 40.9205C93.8028 41.0795 93.3372 41.1591 92.8201 41.1591ZM98.9402 36.4062V41H97.7669V33.3636H98.9004V34.5568H98.9998C99.1788 34.169 99.4506 33.8575 99.8152 33.6222C100.18 33.3835 100.65 33.2642 101.227 33.2642C101.744 33.2642 102.197 33.3703 102.584 33.5824C102.972 33.7912 103.274 34.1094 103.489 34.5369C103.705 34.9612 103.812 35.4981 103.812 36.1477V41H102.639V36.2273C102.639 35.6274 102.483 35.16 102.172 34.8253C101.86 34.4872 101.433 34.3182 100.889 34.3182C100.514 34.3182 100.18 34.3994 99.8848 34.5618C99.5931 34.7242 99.3627 34.9612 99.1937 35.2727C99.0247 35.5843 98.9402 35.9621 98.9402 36.4062ZM109.277 33.3636V34.358H105.32V33.3636H109.277ZM106.473 31.5341H107.647V38.8125C107.647 39.1439 107.695 39.3925 107.791 39.5582C107.89 39.7206 108.016 39.83 108.169 39.8864C108.324 39.9394 108.489 39.9659 108.661 39.9659C108.79 39.9659 108.896 39.9593 108.979 39.946C109.062 39.9295 109.128 39.9162 109.178 39.9062L109.417 40.9602C109.337 40.9901 109.226 41.0199 109.083 41.0497C108.941 41.0829 108.76 41.0994 108.542 41.0994C108.21 41.0994 107.885 41.0282 107.567 40.8857C107.252 40.7431 106.99 40.526 106.782 40.2344C106.576 39.9427 106.473 39.5748 106.473 39.1307V31.5341ZM114.162 41.1591C113.426 41.1591 112.791 40.9967 112.258 40.6719C111.727 40.3438 111.318 39.8864 111.03 39.2997C110.745 38.7098 110.602 38.0237 110.602 37.2415C110.602 36.4593 110.745 35.7699 111.03 35.1733C111.318 34.5734 111.719 34.1061 112.233 33.7713C112.75 33.4332 113.353 33.2642 114.043 33.2642C114.44 33.2642 114.833 33.3305 115.221 33.4631C115.609 33.5956 115.962 33.8111 116.28 34.1094C116.598 34.4044 116.852 34.7955 117.04 35.2827C117.229 35.7699 117.324 36.3698 117.324 37.0824V37.5795H111.437V36.5653H116.131C116.131 36.1345 116.044 35.75 115.872 35.4119C115.703 35.0739 115.461 34.8071 115.146 34.6115C114.835 34.416 114.467 34.3182 114.043 34.3182C113.575 34.3182 113.171 34.4342 112.83 34.6662C112.491 34.8949 112.231 35.1932 112.049 35.5611C111.867 35.929 111.776 36.3234 111.776 36.7443V37.4205C111.776 37.9972 111.875 38.486 112.074 38.8871C112.276 39.2848 112.556 39.5881 112.914 39.7969C113.272 40.0024 113.688 40.1051 114.162 40.1051C114.47 40.1051 114.749 40.062 114.997 39.9759C115.249 39.8864 115.466 39.7538 115.648 39.5781C115.831 39.3991 115.972 39.1771 116.071 38.9119L117.205 39.2301C117.085 39.6146 116.885 39.9527 116.603 40.2443C116.321 40.5327 115.973 40.758 115.559 40.9205C115.145 41.0795 114.679 41.1591 114.162 41.1591ZM119.109 41V33.3636H120.242V34.517H120.322C120.461 34.1392 120.713 33.8326 121.077 33.5973C121.442 33.362 121.853 33.2443 122.31 33.2443C122.397 33.2443 122.504 33.246 122.634 33.2493C122.763 33.2526 122.861 33.2576 122.927 33.2642V34.4574C122.887 34.4474 122.796 34.4325 122.653 34.4126C122.514 34.3894 122.367 34.3778 122.211 34.3778C121.84 34.3778 121.508 34.4557 121.217 34.6115C120.928 34.764 120.7 34.9761 120.531 35.2479C120.365 35.5163 120.282 35.8229 120.282 36.1676V41H119.109Z" fill="#808080"/>
</svg>
