<svg viewBox="0 0 135 115" xmlns="http://www.w3.org/2000/svg">
  <g id="图层_2" data-name="图层 2">
    <g id="图层_1-2" data-name="图层 1">
      <path d="M135.89,14.29a6.6,6.6,0,0,0,0-9.32l-3-3a6.6,6.6,0,0,0-9.32,0L75.09,50.36a10.58,10.58,0,0,0,0,14.93l48.43,48.43a6.55,6.55,0,0,0,4.66,1.93,8.08,8.08,0,0,0,.85-.05,6.92,6.92,0,0,0,3.95-2l2.9-2.9a6.59,6.59,0,0,0,0-9.32L96.22,61.69a5.47,5.47,0,0,1,0-7.73Z" style="fill: rgb(255, 255, 255);"/>
      <path d="M14.29,1.93A6.6,6.6,0,0,0,8.79.05a6.89,6.89,0,0,0-3.95,2L1.93,5a6.58,6.58,0,0,0,0,9.31L41.59,54a5.46,5.46,0,0,1,0,7.73L1.93,101.36a6.59,6.59,0,0,0,0,9.32l3.05,3a6.58,6.58,0,0,0,9.31,0L62.72,65.29a10.56,10.56,0,0,0,0-14.93Z" style="fill: rgb(255, 255, 255);"/>
    </g>
  </g>
</svg>
