<svg width="17" height="17" viewBox="0 0 17 17" fill="none" xmlns="http://www.w3.org/2000/svg">
<path d="M8.59414 16.5276C8.31081 16.5276 8.07347 16.4316 7.88214 16.2396C7.69014 16.0483 7.59414 15.811 7.59414 15.5276V4.35264L2.71914 9.22764C2.51914 9.42764 2.28147 9.52764 2.00614 9.52764C1.73147 9.52764 1.49414 9.42764 1.29414 9.22764C1.09414 9.02764 0.994141 8.7943 0.994141 8.52764C0.994141 8.26097 1.09414 8.02764 1.29414 7.82764L7.89414 1.22764C7.99414 1.12764 8.10247 1.05664 8.21914 1.01464C8.33581 0.973303 8.46081 0.952637 8.59414 0.952637C8.72747 0.952637 8.85681 0.973303 8.98214 1.01464C9.10681 1.05664 9.21081 1.12764 9.29414 1.22764L15.8941 7.82764C16.0941 8.02764 16.1941 8.26097 16.1941 8.52764C16.1941 8.7943 16.0941 9.02764 15.8941 9.22764C15.6941 9.42764 15.4565 9.52764 15.1811 9.52764C14.9065 9.52764 14.6691 9.42764 14.4691 9.22764L9.59414 4.35264V15.5276C9.59414 15.811 9.49847 16.0483 9.30714 16.2396C9.11514 16.4316 8.87747 16.5276 8.59414 16.5276Z" fill="#598576"/>
</svg>
