<svg width="15" height="18" viewBox="0 0 15 18" fill="none" xmlns="http://www.w3.org/2000/svg">
<path d="M2.90039 14.95L7.90039 12.8L12.9004 14.95V2H2.90039V14.95ZM2.30039 17.4C1.96706 17.5333 1.65039 17.504 1.35039 17.312C1.05039 17.1207 0.900391 16.8417 0.900391 16.475V2C0.900391 1.45 1.09639 0.979 1.48839 0.587C1.87972 0.195667 2.35039 0 2.90039 0H12.9004C13.4504 0 13.9214 0.195667 14.3134 0.587C14.7047 0.979 14.9004 1.45 14.9004 2V16.475C14.9004 16.8417 14.7504 17.1207 14.4504 17.312C14.1504 17.504 13.8337 17.5333 13.5004 17.4L7.90039 15L2.30039 17.4Z" fill="#598576"/>
</svg>
