<svg width="16" height="18" viewBox="0 0 16 18" fill="none" xmlns="http://www.w3.org/2000/svg">
<path d="M1.79395 17.8403C1.51061 17.8403 1.27295 17.7443 1.08095 17.5523C0.889612 17.361 0.793945 17.1237 0.793945 16.8403V1.84033C0.793945 1.557 0.889612 1.31933 1.08095 1.12733C1.27295 0.935999 1.51061 0.840332 1.79395 0.840332H8.96895C9.20228 0.840332 9.41061 0.915332 9.59395 1.06533C9.77728 1.21533 9.89394 1.407 9.94394 1.64033L10.1939 2.84033H14.7939C15.0773 2.84033 15.3146 2.936 15.5059 3.12733C15.6979 3.31933 15.7939 3.557 15.7939 3.84033V11.8403C15.7939 12.1237 15.6979 12.361 15.5059 12.5523C15.3146 12.7443 15.0773 12.8403 14.7939 12.8403H9.61895C9.38561 12.8403 9.17728 12.7653 8.99395 12.6153C8.81061 12.4653 8.69395 12.2737 8.64395 12.0403L8.39395 10.8403H2.79395V16.8403C2.79395 17.1237 2.69828 17.361 2.50695 17.5523C2.31495 17.7443 2.07728 17.8403 1.79395 17.8403ZM10.4439 10.8403H13.7939V4.84033H8.54395L8.14395 2.84033H2.79395V8.84033H10.0439L10.4439 10.8403Z" fill="#598576"/>
</svg>
