<svg width="21" height="17" viewBox="0 0 21 17" fill="none" xmlns="http://www.w3.org/2000/svg">
<path d="M1.74976 16.749C1.46642 16.749 1.22909 16.653 1.03776 16.461C0.845756 16.2697 0.749756 16.0324 0.749756 15.749V13.949C0.749756 13.399 0.891422 12.8824 1.17476 12.399C1.45809 11.9157 1.84976 11.549 2.34976 11.299C3.19976 10.8657 4.15809 10.499 5.22476 10.199C6.29142 9.89902 7.46642 9.74902 8.74976 9.74902C9.24976 9.74902 9.73742 9.77402 10.2128 9.82402C10.6874 9.87402 11.1498 9.94902 11.5998 10.049L9.84976 11.799C9.66642 11.7657 9.48709 11.749 9.31176 11.749C9.13709 11.749 8.94976 11.749 8.74976 11.749C7.56642 11.749 6.50376 11.8907 5.56176 12.174C4.62042 12.4574 3.84976 12.7657 3.24976 13.099C3.09976 13.1824 2.97909 13.299 2.88776 13.449C2.79576 13.599 2.74976 13.7657 2.74976 13.949V14.749H8.99976L10.9998 16.749H1.74976ZM14.2998 16.724C14.1664 16.724 14.0414 16.7034 13.9248 16.662C13.8081 16.62 13.6998 16.549 13.5998 16.449L11.5498 14.399C11.3664 14.2157 11.2748 13.9824 11.2748 13.699C11.2748 13.4157 11.3664 13.1824 11.5498 12.999C11.7331 12.8157 11.9664 12.724 12.2498 12.724C12.5331 12.724 12.7664 12.8157 12.9498 12.999L14.2998 14.349L18.6498 9.99902C18.8331 9.81569 19.0664 9.72402 19.3498 9.72402C19.6331 9.72402 19.8664 9.81569 20.0498 9.99902C20.2331 10.1824 20.3248 10.4157 20.3248 10.699C20.3248 10.9824 20.2331 11.2157 20.0498 11.399L14.9998 16.449C14.8998 16.549 14.7914 16.62 14.6748 16.662C14.5581 16.7034 14.4331 16.724 14.2998 16.724ZM8.74976 8.74902C7.64976 8.74902 6.70809 8.35736 5.92476 7.57402C5.14142 6.79069 4.74976 5.84902 4.74976 4.74902C4.74976 3.64902 5.14142 2.70736 5.92476 1.92402C6.70809 1.14069 7.64976 0.749023 8.74976 0.749023C9.84976 0.749023 10.7914 1.14069 11.5748 1.92402C12.3581 2.70736 12.7498 3.64902 12.7498 4.74902C12.7498 5.84902 12.3581 6.79069 11.5748 7.57402C10.7914 8.35736 9.84976 8.74902 8.74976 8.74902ZM8.74976 6.74902C9.29976 6.74902 9.77076 6.55302 10.1628 6.16102C10.5541 5.76969 10.7498 5.29902 10.7498 4.74902C10.7498 4.19902 10.5541 3.72836 10.1628 3.33702C9.77076 2.94502 9.29976 2.74902 8.74976 2.74902C8.19976 2.74902 7.72909 2.94502 7.33776 3.33702C6.94576 3.72836 6.74976 4.19902 6.74976 4.74902C6.74976 5.29902 6.94576 5.76969 7.33776 6.16102C7.72909 6.55302 8.19976 6.74902 8.74976 6.74902Z" fill="#598576"/>
</svg>
