<svg width="23" height="20" viewBox="0 0 23 20" fill="none" xmlns="http://www.w3.org/2000/svg">
<path d="M2.1001 20C1.53343 20 1.05843 19.8083 0.675098 19.425C0.291764 19.0417 0.100098 18.575 0.100098 18.025V10C0.100098 9.45 0.296098 8.979 0.688098 8.587C1.07943 8.19567 1.5501 8 2.1001 8C2.66676 8 3.14176 8.19167 3.5251 8.575C3.90843 8.95833 4.1001 9.425 4.1001 9.975V18C4.1001 18.55 3.9041 19.021 3.5121 19.413C3.12076 19.8043 2.6501 20 2.1001 20ZM8.1001 20C7.5501 20 7.07943 19.8043 6.6881 19.413C6.2961 19.021 6.1001 18.55 6.1001 18V8C6.1001 7.73333 6.1501 7.47933 6.2501 7.238C6.3501 6.996 6.49176 6.78333 6.6751 6.6L12.2251 1.05C12.5084 0.766667 12.8584 0.625 13.2751 0.625C13.6918 0.625 14.0418 0.766667 14.3251 1.05C14.5084 1.23333 14.6378 1.44567 14.7131 1.687C14.7878 1.929 14.8001 2.175 14.7501 2.425L13.8001 7H20.1001C20.6334 7 21.1001 7.2 21.5001 7.6C21.9001 8 22.1001 8.46667 22.1001 9V11C22.1001 11.1167 22.0874 11.2417 22.0621 11.375C22.0374 11.5083 22.0001 11.6333 21.9501 11.75L18.9251 18.8C18.7418 19.2 18.4628 19.5 18.0881 19.7C17.7128 19.9 17.3251 20 16.9251 20H8.1001ZM8.1001 18H17.1001L20.1001 11V9H11.1001L12.4501 3.65L8.1001 8V18Z" fill="#598576"/>
</svg>
