<svg width="48" height="12" viewBox="0 0 48 12" fill="none" xmlns="http://www.w3.org/2000/svg">
<path d="M20.5816 4.33755V3.34399H15.4091V4.49269H18.7377L15.4091 8.14884V9.14255H20.6351V7.99387H17.272L20.5816 4.33755Z" fill="#808080"/>
<path d="M31.8982 3.17444C31.1657 3.17444 30.5656 3.39637 30.1264 3.82329V3.3441H28.76V11.2611H30.1264V8.67054C30.5647 9.09261 31.1648 9.31215 31.8982 9.31215C33.5949 9.31215 34.6077 8.16474 34.6077 6.24326C34.6077 4.32184 33.5947 3.17444 31.8982 3.17444ZM31.7266 4.36556C32.7809 4.36556 33.2305 4.92716 33.2305 6.2431C33.2305 7.55923 32.7807 8.12083 31.7266 8.12083C30.6498 8.12083 30.1264 7.50659 30.1264 6.2431C30.1262 4.97981 30.6498 4.36556 31.7266 4.36556Z" fill="#808080"/>
<path d="M38.9489 5.63403L37.8128 5.47519C37.1628 5.38347 37.1628 5.08415 37.1628 4.94036C37.1628 4.78503 37.1628 4.31252 38.195 4.31252C38.9135 4.31252 39.3376 4.60421 39.3891 5.13382L39.4112 5.36114H40.7605L40.7433 5.09382C40.6663 3.90327 39.6981 3.16364 38.2167 3.16364C36.7371 3.16364 35.818 3.86867 35.818 5.00379C35.818 5.9391 36.4138 6.53534 37.4936 6.68266L38.738 6.86272C39.4368 6.96134 39.4953 7.23979 39.4953 7.49299C39.4953 7.84104 39.3664 8.16324 38.4309 8.16324C37.2287 8.16324 37.0238 7.5951 36.9798 7.1001L36.9592 6.8709H35.6736L35.6785 7.1271C35.7052 8.51577 36.7005 9.31214 38.4093 9.31214C40.4272 9.31214 40.8508 8.29994 40.8508 7.45077C40.8508 6.40104 40.247 5.82379 38.9489 5.63403Z" fill="#808080"/>
<path d="M26.5126 3.34399L24.8516 7.42033L24.6201 8.01656L22.973 3.34399H21.3228L23.647 9.14255H23.7418H24.1833L23.8009 10.0699H22.2273V11.261H23.5002C24.642 11.261 24.9086 10.729 25.2477 9.86435L27.9081 3.34399H26.5126Z" fill="#808080"/>
<path d="M46.4959 3.34399L44.8348 7.42033L44.6033 8.01656L42.9562 3.34399H41.306L43.6303 9.14255H43.725H44.1665L43.7841 10.0699H42.2105V11.261H43.4834C44.6252 11.261 44.8918 10.729 45.2309 9.86435L47.8913 3.34399H46.4959Z" fill="#808080"/>
<path d="M11.8636 5.34894H0.518158V6.6511H11.8636V5.34894Z" fill="#808080"/>
<path d="M6.84207 0.327332H5.5399V11.6728H6.84207V0.327332Z" fill="#808080"/>
<path d="M2.64008 1.52844L1.71933 2.44921L9.74155 10.4716L10.6623 9.55079L2.64008 1.52844Z" fill="#808080"/>
<path d="M6.13555 5.13336L1.71933 9.55089L2.64021 10.4715L7.05644 6.05399L6.13555 5.13336Z" fill="#808080"/>
<path d="M8.12831 4.93108L7.20747 4.01044L9.74166 1.5285L10.6625 2.44914L8.12831 4.93108Z" fill="#808080"/>
</svg>
