<svg width="24" height="24" viewBox="0 0 24 24" fill="none" xmlns="http://www.w3.org/2000/svg">
<path d="M12.2938 19.5276C12.0105 19.5276 11.7732 19.4316 11.5818 19.2396C11.3898 19.0483 11.2938 18.811 11.2938 18.5276V7.35264L6.41885 12.2276C6.21885 12.4276 5.98118 12.5276 5.70585 12.5276C5.43118 12.5276 5.19385 12.4276 4.99385 12.2276C4.79385 12.0276 4.69385 11.7943 4.69385 11.5276C4.69385 11.261 4.79385 11.0276 4.99385 10.8276L11.5938 4.22764C11.6938 4.12764 11.8022 4.05664 11.9188 4.01464C12.0355 3.9733 12.1605 3.95264 12.2938 3.95264C12.4272 3.95264 12.5565 3.9733 12.6818 4.01464C12.8065 4.05664 12.9105 4.12764 12.9938 4.22764L19.5938 10.8276C19.7938 11.0276 19.8938 11.261 19.8938 11.5276C19.8938 11.7943 19.7938 12.0276 19.5938 12.2276C19.3938 12.4276 19.1562 12.5276 18.8808 12.5276C18.6062 12.5276 18.3688 12.4276 18.1688 12.2276L13.2938 7.35264V18.5276C13.2938 18.811 13.1982 19.0483 13.0068 19.2396C12.8148 19.4316 12.5772 19.5276 12.2938 19.5276Z" fill="#598576"/>
</svg>
