<svg width="24" height="24" viewBox="0 0 24 24" fill="none" xmlns="http://www.w3.org/2000/svg">
<path d="M6.2937 20.8403C6.01037 20.8403 5.7727 20.7443 5.5807 20.5523C5.38937 20.361 5.2937 20.1237 5.2937 19.8403V4.84033C5.2937 4.557 5.38937 4.31933 5.5807 4.12733C5.7727 3.936 6.01037 3.84033 6.2937 3.84033H13.4687C13.702 3.84033 13.9104 3.91533 14.0937 4.06533C14.277 4.21533 14.3937 4.407 14.4437 4.64033L14.6937 5.84033H19.2937C19.577 5.84033 19.8144 5.936 20.0057 6.12733C20.1977 6.31933 20.2937 6.557 20.2937 6.84033V14.8403C20.2937 15.1237 20.1977 15.361 20.0057 15.5523C19.8144 15.7443 19.577 15.8403 19.2937 15.8403H14.1187C13.8854 15.8403 13.677 15.7653 13.4937 15.6153C13.3104 15.4653 13.1937 15.2737 13.1437 15.0403L12.8937 13.8403H7.2937V19.8403C7.2937 20.1237 7.19803 20.361 7.0067 20.5523C6.8147 20.7443 6.57703 20.8403 6.2937 20.8403ZM14.9437 13.8403H18.2937V7.84033H13.0437L12.6437 5.84033H7.2937V11.8403H14.5437L14.9437 13.8403Z" fill="#598576"/>
</svg>
