<svg width="24" height="24" viewBox="0 0 24 24" fill="none" xmlns="http://www.w3.org/2000/svg">
<path d="M3.0498 19.749C2.76647 19.749 2.52914 19.653 2.3378 19.461C2.1458 19.2697 2.0498 19.0324 2.0498 18.749V16.949C2.0498 16.399 2.19147 15.8824 2.4748 15.399C2.75814 14.9157 3.1498 14.549 3.6498 14.299C4.4998 13.8657 5.45814 13.499 6.5248 13.199C7.59147 12.899 8.76647 12.749 10.0498 12.749C10.5498 12.749 11.0375 12.774 11.5128 12.824C11.9875 12.874 12.4498 12.949 12.8998 13.049L11.1498 14.799C10.9665 14.7657 10.7871 14.749 10.6118 14.749C10.4371 14.749 10.2498 14.749 10.0498 14.749C8.86647 14.749 7.8038 14.8907 6.8618 15.174C5.92047 15.4574 5.1498 15.7657 4.5498 16.099C4.3998 16.1824 4.27914 16.299 4.1878 16.449C4.0958 16.599 4.0498 16.7657 4.0498 16.949V17.749H10.2998L12.2998 19.749H3.0498ZM15.5998 19.724C15.4665 19.724 15.3415 19.7034 15.2248 19.662C15.1081 19.62 14.9998 19.549 14.8998 19.449L12.8498 17.399C12.6665 17.2157 12.5748 16.9824 12.5748 16.699C12.5748 16.4157 12.6665 16.1824 12.8498 15.999C13.0331 15.8157 13.2665 15.724 13.5498 15.724C13.8331 15.724 14.0665 15.8157 14.2498 15.999L15.5998 17.349L19.9498 12.999C20.1331 12.8157 20.3665 12.724 20.6498 12.724C20.9331 12.724 21.1665 12.8157 21.3498 12.999C21.5331 13.1824 21.6248 13.4157 21.6248 13.699C21.6248 13.9824 21.5331 14.2157 21.3498 14.399L16.2998 19.449C16.1998 19.549 16.0915 19.62 15.9748 19.662C15.8581 19.7034 15.7331 19.724 15.5998 19.724ZM10.0498 11.749C8.9498 11.749 8.00814 11.3574 7.2248 10.574C6.44147 9.79069 6.0498 8.84902 6.0498 7.74902C6.0498 6.64902 6.44147 5.70736 7.2248 4.92402C8.00814 4.14069 8.9498 3.74902 10.0498 3.74902C11.1498 3.74902 12.0915 4.14069 12.8748 4.92402C13.6581 5.70736 14.0498 6.64902 14.0498 7.74902C14.0498 8.84902 13.6581 9.79069 12.8748 10.574C12.0915 11.3574 11.1498 11.749 10.0498 11.749ZM10.0498 9.74902C10.5998 9.74902 11.0708 9.55302 11.4628 9.16102C11.8541 8.76969 12.0498 8.29902 12.0498 7.74902C12.0498 7.19902 11.8541 6.72836 11.4628 6.33702C11.0708 5.94502 10.5998 5.74902 10.0498 5.74902C9.4998 5.74902 9.02914 5.94502 8.6378 6.33702C8.2458 6.72836 8.0498 7.19902 8.0498 7.74902C8.0498 8.29902 8.2458 8.76969 8.6378 9.16102C9.02914 9.55302 9.4998 9.74902 10.0498 9.74902Z" fill="#598576"/>
</svg>
