<svg width="24" height="24" viewBox="0 0 24 24" fill="none" xmlns="http://www.w3.org/2000/svg">
<path d="M11.3 22.3L9 20H5C4.45 20 3.979 19.8043 3.587 19.413C3.19567 19.021 3 18.55 3 18V4C3 3.45 3.19567 2.979 3.587 2.587C3.979 2.19567 4.45 2 5 2H19C19.55 2 20.021 2.19567 20.413 2.587C20.8043 2.979 21 3.45 21 4V18C21 18.55 20.8043 19.021 20.413 19.413C20.021 19.8043 19.55 20 19 20H15L12.7 22.3C12.5 22.5 12.2667 22.6 12 22.6C11.7333 22.6 11.5 22.5 11.3 22.3ZM5 18H9.8L12 20.2L14.2 18H19V4H5V18ZM13.55 12.55L15.975 11.45C16.175 11.3667 16.275 11.2167 16.275 11C16.275 10.7833 16.175 10.6333 15.975 10.55L13.55 9.45L12.45 7.025C12.3667 6.825 12.2167 6.725 12 6.725C11.7833 6.725 11.6333 6.825 11.55 7.025L10.45 9.45L8.025 10.55C7.825 10.6333 7.725 10.7833 7.725 11C7.725 11.2167 7.825 11.3667 8.025 11.45L10.45 12.55L11.55 14.975C11.6333 15.175 11.7833 15.275 12 15.275C12.2167 15.275 12.3667 15.175 12.45 14.975L13.55 12.55Z" fill="#598576"/>
</svg>
