<svg width="24" height="24" viewBox="0 0 24 24" fill="none" xmlns="http://www.w3.org/2000/svg">
<path d="M13 10H16C16.2833 10 16.5207 9.904 16.712 9.712C16.904 9.52067 17 9.28333 17 9C17 8.71667 16.904 8.479 16.712 8.287C16.5207 8.09567 16.2833 8 16 8H13C12.7167 8 12.4793 8.09567 12.288 8.287C12.096 8.479 12 8.71667 12 9C12 9.28333 12.096 9.52067 12.288 9.712C12.4793 9.904 12.7167 10 13 10ZM13 16H16C16.2833 16 16.5207 15.904 16.712 15.712C16.904 15.5207 17 15.2833 17 15C17 14.7167 16.904 14.479 16.712 14.287C16.5207 14.0957 16.2833 14 16 14H13C12.7167 14 12.4793 14.0957 12.288 14.287C12.096 14.479 12 14.7167 12 15C12 15.2833 12.096 15.5207 12.288 15.712C12.4793 15.904 12.7167 16 13 16ZM8 11H10C10.2833 11 10.521 10.904 10.713 10.712C10.9043 10.5207 11 10.2833 11 10V8C11 7.71667 10.9043 7.479 10.713 7.287C10.521 7.09567 10.2833 7 10 7H8C7.71667 7 7.479 7.09567 7.287 7.287C7.09567 7.479 7 7.71667 7 8V10C7 10.2833 7.09567 10.5207 7.287 10.712C7.479 10.904 7.71667 11 8 11ZM8 17H10C10.2833 17 10.521 16.904 10.713 16.712C10.9043 16.5207 11 16.2833 11 16V14C11 13.7167 10.9043 13.479 10.713 13.287C10.521 13.0957 10.2833 13 10 13H8C7.71667 13 7.479 13.0957 7.287 13.287C7.09567 13.479 7 13.7167 7 14V16C7 16.2833 7.09567 16.5207 7.287 16.712C7.479 16.904 7.71667 17 8 17ZM5 21C4.45 21 3.979 20.8043 3.587 20.413C3.19567 20.021 3 19.55 3 19V5C3 4.45 3.19567 3.979 3.587 3.587C3.979 3.19567 4.45 3 5 3H19C19.55 3 20.021 3.19567 20.413 3.587C20.8043 3.979 21 4.45 21 5V19C21 19.55 20.8043 20.021 20.413 20.413C20.021 20.8043 19.55 21 19 21H5ZM5 19H19V5H5V19Z" fill="#598576"/>
</svg>
