<svg width="24" height="24" viewBox="0 0 24 24" fill="none" xmlns="http://www.w3.org/2000/svg">
<path d="M6.5 20C5.67157 20 5 19.3284 5 18.5V10.5C5 9.67157 5.67157 9 6.5 9V9C7.32843 9 8 9.67157 8 10.5V18.5C8 19.3284 7.32843 20 6.5 20V20ZM12 20C11.1716 20 10.5 19.3284 10.5 18.5V6.5C10.5 5.67157 11.1716 5 12 5V5C12.8284 5 13.5 5.67157 13.5 6.5V18.5C13.5 19.3284 12.8284 20 12 20V20ZM17.5 20C16.6716 20 16 19.3284 16 18.5V14.5C16 13.6716 16.6716 13 17.5 13V13C18.3284 13 19 13.6716 19 14.5V18.5C19 19.3284 18.3284 20 17.5 20V20Z" fill="#598576"/>
</svg>
