<svg width="24" height="24" viewBox="0 0 24 24" fill="none" xmlns="http://www.w3.org/2000/svg">
<path d="M12 22.5C11.7833 22.5 11.575 22.4667 11.375 22.4C11.175 22.3333 10.9833 22.2333 10.8 22.1L4.8 17.6C4.55 17.4167 4.35433 17.1833 4.213 16.9C4.071 16.6167 4 16.3167 4 16V4C4 3.45 4.196 2.979 4.588 2.587C4.97933 2.19567 5.45 2 6 2H18C18.55 2 19.021 2.19567 19.413 2.587C19.8043 2.979 20 3.45 20 4V16C20 16.3167 19.9293 16.6167 19.788 16.9C19.646 17.1833 19.45 17.4167 19.2 17.6L13.2 22.1C13.0167 22.2333 12.825 22.3333 12.625 22.4C12.425 22.4667 12.2167 22.5 12 22.5ZM12 20.5L18 16V4H6V16L12 20.5ZM10.95 14.575C11.0833 14.575 11.2127 14.55 11.338 14.5C11.4627 14.45 11.5667 14.3833 11.65 14.3L15.9 10.05C16.0833 9.86667 16.175 9.63733 16.175 9.362C16.175 9.08733 16.0833 8.85 15.9 8.65C15.7 8.45 15.4627 8.34567 15.188 8.337C14.9127 8.329 14.675 8.425 14.475 8.625L10.95 12.15L9.55 10.75C9.36667 10.5667 9.13767 10.475 8.863 10.475C8.58767 10.475 8.35 10.5667 8.15 10.75C7.95 10.95 7.846 11.1873 7.838 11.462C7.82933 11.7373 7.925 11.975 8.125 12.175L10.25 14.3C10.3333 14.3833 10.4373 14.45 10.562 14.5C10.6873 14.55 10.8167 14.575 10.95 14.575Z" fill="#598576"/>
</svg>
