<svg width="24" height="24" viewBox="0 0 24 24" fill="none" xmlns="http://www.w3.org/2000/svg">
<path d="M5.175 16H18.825L17.5016 14.5069C17.1496 14.1098 17.1677 13.5072 17.543 13.132V13.132C17.9529 12.7221 18.6239 12.7438 19.0064 13.1794L20.5029 14.8838C20.8233 15.2487 21 15.7178 21 16.2034V20C21 20.55 20.8043 21.021 20.413 21.413C20.021 21.8043 19.55 22 19 22H5C4.45 22 3.979 21.8043 3.587 21.413C3.19567 21.021 3 20.55 3 20V16.2047C3 15.7183 3.17725 15.2485 3.49857 14.8834L5.04359 13.1277C5.42623 12.6929 6.09655 12.6715 6.50611 13.0811V13.0811C6.88172 13.4567 6.89945 14.06 6.54655 14.457L5.175 16ZM18.45 9.39997L13.45 14.4C13.0667 14.7833 12.596 14.9706 12.038 14.962C11.4793 14.954 11.0083 14.7583 10.625 14.375L7.1 10.85C6.71667 10.4666 6.52933 9.99597 6.538 9.43797C6.546 8.8793 6.74167 8.4083 7.125 8.02497L12.025 3.12497C12.4083 2.74163 12.8833 2.54163 13.45 2.52497C14.0167 2.5083 14.4917 2.69163 14.875 3.07497L18.4 6.59997C18.7833 6.9833 18.9833 7.44997 19 7.99997C19.0167 8.54997 18.8333 9.01663 18.45 9.39997ZM17 8.02497L13.475 4.49997L8.525 9.44997L12.05 12.975L17 8.02497ZM5 20H19V18H5V20Z" fill="#598576"/>
</svg>
