<svg width="24" height="24" viewBox="0 0 24 24" fill="none" xmlns="http://www.w3.org/2000/svg">
<path fill-rule="evenodd" clip-rule="evenodd" d="M12 4C14.8995 4 17.6499 4.61579 20.1318 5.72181C20.6075 5.93379 21 6.48767 21 7.25037V8.40848C18.3515 6.87681 15.276 6 12 6C8.72399 6 5.64845 6.87681 3 8.40848V7.25037C3 6.48767 3.39245 5.93379 3.86815 5.72181C6.35008 4.61579 9.10046 4 12 4ZM23 7.25037C23 5.82251 22.2502 4.47619 20.9459 3.89499C18.2128 2.67701 15.1854 2 12 2C8.81455 2 5.78723 2.67701 3.05407 3.89499C1.74984 4.47619 1 5.82251 1 7.25037V10.0567C1 10.9345 2.07934 11.4155 2.79704 10.91C3.11137 10.6886 3.43404 10.4782 3.76447 10.2795L8 15.3621V21C8 21.5523 8.44772 22 9 22H15C15.5523 22 16 21.5523 16 21V15.3621L20.2355 10.2795C20.566 10.4782 20.8886 10.6886 21.203 10.91C21.9207 11.4155 23 10.9345 23 10.0567V7.25037ZM18.4163 9.33846C16.4521 8.47767 14.2818 8 12 8C9.71816 8 7.54789 8.47767 5.58372 9.33846L9.46834 14H14.5317L18.4163 9.33846ZM10 20V16H14V20H10Z" fill="#598576"/>
</svg>
