<svg width="24" height="24" viewBox="0 0 24 24" fill="none" xmlns="http://www.w3.org/2000/svg">
<path d="M11.975 19C12.2083 19 12.4127 18.9127 12.588 18.738C12.7627 18.5627 12.85 18.3583 12.85 18.125V17.75C13.6833 17.6 14.4 17.275 15 16.775C15.6 16.275 15.9 15.5333 15.9 14.55C15.9 13.85 15.7 13.2083 15.3 12.625C14.9 12.0417 14.1 11.5333 12.9 11.1C11.9 10.7667 11.2083 10.475 10.825 10.225C10.4417 9.975 10.25 9.63333 10.25 9.2C10.25 8.76667 10.4043 8.425 10.713 8.175C11.021 7.925 11.4667 7.8 12.05 7.8C12.3833 7.8 12.675 7.85833 12.925 7.975C13.175 8.09167 13.3833 8.25 13.55 8.45C13.7167 8.65 13.9043 8.78767 14.113 8.863C14.321 8.93767 14.5167 8.93333 14.7 8.85C14.95 8.75 15.121 8.579 15.213 8.337C15.3043 8.09567 15.2833 7.875 15.15 7.675C14.8833 7.29167 14.5543 6.96667 14.163 6.7C13.771 6.43333 13.35 6.28333 12.9 6.25V5.875C12.9 5.64167 12.8123 5.43733 12.637 5.262C12.4623 5.08733 12.2583 5 12.025 5C11.7917 5 11.5877 5.08733 11.413 5.262C11.2377 5.43733 11.15 5.64167 11.15 5.875V6.25C10.3167 6.43333 9.66667 6.8 9.2 7.35C8.73333 7.9 8.5 8.51667 8.5 9.2C8.5 9.98333 8.72933 10.6167 9.188 11.1C9.646 11.5833 10.3667 12 11.35 12.35C12.4 12.7333 13.1293 13.075 13.538 13.375C13.946 13.675 14.15 14.0667 14.15 14.55C14.15 15.1 13.954 15.504 13.562 15.762C13.1707 16.0207 12.7 16.15 12.15 16.15C11.7167 16.15 11.325 16.0457 10.975 15.837C10.625 15.629 10.3333 15.3167 10.1 14.9C9.96667 14.6667 9.79167 14.5083 9.575 14.425C9.35833 14.3417 9.14167 14.3417 8.925 14.425C8.69167 14.5083 8.521 14.6667 8.413 14.9C8.30433 15.1333 8.3 15.3583 8.4 15.575C8.66667 16.1417 9.025 16.604 9.475 16.962C9.925 17.3207 10.4667 17.5667 11.1 17.7V18.125C11.1 18.3583 11.1877 18.5627 11.363 18.738C11.5377 18.9127 11.7417 19 11.975 19ZM12 22C10.6167 22 9.31667 21.7373 8.1 21.212C6.88333 20.6873 5.825 19.975 4.925 19.075C4.025 18.175 3.31267 17.1167 2.788 15.9C2.26267 14.6833 2 13.3833 2 12C2 10.6167 2.26267 9.31667 2.788 8.1C3.31267 6.88333 4.025 5.825 4.925 4.925C5.825 4.025 6.88333 3.31233 8.1 2.787C9.31667 2.26233 10.6167 2 12 2C13.3833 2 14.6833 2.26233 15.9 2.787C17.1167 3.31233 18.175 4.025 19.075 4.925C19.975 5.825 20.6873 6.88333 21.212 8.1C21.7373 9.31667 22 10.6167 22 12C22 13.3833 21.7373 14.6833 21.212 15.9C20.6873 17.1167 19.975 18.175 19.075 19.075C18.175 19.975 17.1167 20.6873 15.9 21.212C14.6833 21.7373 13.3833 22 12 22ZM12 20C14.2167 20 16.1043 19.221 17.663 17.663C19.221 16.1043 20 14.2167 20 12C20 9.78333 19.221 7.89567 17.663 6.337C16.1043 4.779 14.2167 4 12 4C9.78333 4 7.896 4.779 6.338 6.337C4.77933 7.89567 4 9.78333 4 12C4 14.2167 4.77933 16.1043 6.338 17.663C7.896 19.221 9.78333 20 12 20Z" fill="#598576"/>
</svg>
