<svg width="24" height="24" viewBox="0 0 24 24" fill="none" xmlns="http://www.w3.org/2000/svg">
<path fill-rule="evenodd" clip-rule="evenodd" d="M19.713 12.9899C19.9516 12.816 20.1804 12.6196 20.3993 12.4007C20.3995 12.4005 20.3998 12.4002 20.4 12.4C20.4002 12.3998 20.4005 12.3995 20.4007 12.3993C20.6195 12.1804 20.8159 11.9517 20.9898 11.7131C21.6633 10.7894 22 9.71836 22 8.5C22 7.28162 21.6633 6.21056 20.9898 5.28683C20.8159 5.04829 20.6195 4.81958 20.4007 4.6007C20.4005 4.60047 20.4002 4.60023 20.4 4.6C20.3998 4.59977 20.3995 4.59954 20.3993 4.5993C20.1804 4.38046 19.9517 4.18408 19.7131 4.01015C18.7894 3.33672 17.7183 3 16.5 3C15.2816 3 14.2106 3.33674 13.2868 4.01022C13.0483 4.18413 12.8196 4.38049 12.6007 4.5993C12.6005 4.59954 12.6002 4.59977 12.6 4.6C12.5998 4.60023 12.5995 4.60047 12.5993 4.6007C12.3805 4.8196 12.1841 5.04832 12.0102 5.28687C11.3367 6.2106 11 7.28164 11 8.5C11 8.89184 11.0348 9.26844 11.1045 9.62981C11.1187 9.70338 11.1343 9.77632 11.1514 9.84863C11.3111 10.5254 11.5973 11.1468 12.01 11.7129C12.184 11.9515 12.3804 12.1803 12.5993 12.3993C12.5995 12.3995 12.5998 12.3998 12.6 12.4C12.6002 12.4002 12.6005 12.4005 12.6007 12.4007C12.6827 12.4827 12.7661 12.5615 12.8509 12.6372C12.9924 12.7636 13.1378 12.8812 13.2871 12.99C13.3411 13.0293 13.3956 13.0676 13.4506 13.1046C13.7821 13.328 14.1319 13.5096 14.5 13.6494C15.1155 13.8831 15.7822 14 16.5 14C16.8171 14 17.1242 13.9772 17.4214 13.9316C18.2658 13.8019 19.0297 13.488 19.713 12.9899ZM16.293 15.5846C15.7788 15.1949 15.1812 15 14.5 15C14.0342 15 13.6074 15.0911 13.2197 15.2734C13.0803 15.339 12.946 15.4163 12.8167 15.5053C12.7667 15.5398 12.7175 15.576 12.669 15.614C12.5686 15.6926 12.4714 15.7788 12.3775 15.8725C12.3766 15.8734 12.3758 15.8742 12.375 15.875C12.3742 15.8758 12.3734 15.8766 12.3725 15.8775C12.2788 15.9714 12.1926 16.0686 12.114 16.169C11.7119 16.6823 11.5074 17.2802 11.5002 17.9628C11.5001 17.9752 11.5 17.9876 11.5 18C11.5 18.698 11.7046 19.3083 12.1139 19.831C12.1926 19.9314 12.2788 20.0286 12.3725 20.1225C12.3734 20.1234 12.3742 20.1242 12.375 20.125C12.3758 20.1258 12.3766 20.1266 12.3775 20.1275C12.4714 20.2212 12.5686 20.3074 12.669 20.386C13.1916 20.7953 13.8019 21 14.5 21C15.1812 21 15.7788 20.8051 16.293 20.4154C16.4078 20.3283 16.5185 20.2315 16.625 20.125C16.6252 20.1248 16.6253 20.1247 16.6255 20.1245C16.7359 20.0141 16.8358 19.8992 16.9252 19.7799C17.3084 19.2687 17.5 18.6754 17.5 18C17.5 17.3244 17.3083 16.7309 16.9249 16.2196C16.8678 16.1435 16.8064 16.0691 16.7407 15.9966C16.7037 15.9556 16.6653 15.9153 16.6255 15.8755C16.6253 15.8753 16.6252 15.8752 16.625 15.875C16.584 15.834 16.5423 15.7943 16.5 15.7562C16.4326 15.6953 16.3636 15.6381 16.293 15.5846ZM13.788 17.288C13.7561 17.3198 13.7268 17.3529 13.7001 17.3873C13.5667 17.5596 13.5 17.7638 13.5 18C13.5 18.2363 13.5668 18.4406 13.7003 18.6129C13.7269 18.6472 13.7561 18.6802 13.788 18.712C13.8198 18.7439 13.8529 18.7732 13.8873 18.7999C14.0596 18.9333 14.2638 19 14.5 19C14.7303 19 14.9303 18.9366 15.1003 18.8098C15.1393 18.7807 15.1767 18.7483 15.2125 18.7125C15.2127 18.7123 15.2128 18.7122 15.213 18.712C15.2498 18.6752 15.2831 18.6366 15.3129 18.5964C15.4376 18.4276 15.5 18.2288 15.5 18C15.5 17.7712 15.4376 17.5725 15.3129 17.4037C15.2832 17.3634 15.2499 17.3249 15.213 17.288C15.2128 17.2878 15.2127 17.2877 15.2125 17.2875C15.1767 17.2518 15.1394 17.2194 15.1005 17.1903C14.9305 17.0634 14.7303 17 14.5 17C14.2637 17 14.0594 17.0668 13.8871 17.2003C13.8528 17.2269 13.8198 17.2561 13.788 17.288ZM9.58564 17.0479C8.85206 17.6826 7.99018 18 7 18C5.9 18 4.95833 17.6083 4.175 16.825C3.39167 16.0417 3 15.1 3 14C3 12.9 3.39167 11.9583 4.175 11.175C4.95833 10.3917 5.9 10 7 10C7.87365 10 8.64743 10.2471 9.32133 10.7412C9.49592 10.8692 9.66381 11.0138 9.825 11.175C10.5125 11.8625 10.8983 12.672 10.9824 13.6034C10.9941 13.7333 11 13.8654 11 14C11 14.1509 10.9926 14.2988 10.9779 14.4438C10.9768 14.4541 10.9758 14.4644 10.9746 14.4746C10.8764 15.3733 10.4932 16.1568 9.825 16.825C9.74679 16.9032 9.667 16.9775 9.58564 17.0479ZM5.58921 15.4108C6.00047 15.822 6.43465 16 7 16C7.56535 16 7.99953 15.822 8.41079 15.4108C8.82204 14.9995 9 14.5654 9 14C9 13.4347 8.82204 13.0005 8.41079 12.5892C7.99953 12.178 7.56535 12 7 12C6.43465 12 6.00047 12.178 5.58921 12.5892C5.17796 13.0005 5 13.4347 5 14C5 14.5654 5.17796 14.9995 5.58921 15.4108ZM14.4498 11.3626C15.0362 11.7875 15.7196 12 16.5 12C17.2803 12 17.9636 11.7876 18.5499 11.3628C18.7025 11.2523 18.8485 11.1273 18.988 10.988C19.1273 10.8485 19.2523 10.7025 19.3628 10.5499C19.7876 9.96354 20 9.28025 20 8.5C20 7.71958 19.7875 7.03617 19.3626 6.44976C19.2521 6.29728 19.1272 6.15136 18.988 6.012C18.8485 5.87268 18.7025 5.74774 18.5499 5.63719C17.9636 5.21239 17.2803 5 16.5 5C15.7197 5 15.0364 5.21241 14.45 5.63722C14.2975 5.74777 14.1514 5.87269 14.012 6.012C13.8727 6.15144 13.7478 6.29744 13.6372 6.45001C13.2124 7.03637 13 7.7197 13 8.5C13 9.28029 13.2124 9.96361 13.6372 10.55C13.7478 10.7025 13.8727 10.8486 14.012 10.988C14.1514 11.1272 14.2973 11.2521 14.4498 11.3626Z" fill="#598576"/>
</svg>
