<svg width="24" height="24" viewBox="0 0 24 24" fill="none" xmlns="http://www.w3.org/2000/svg">
<path d="M8 11C8.28333 11 8.521 10.904 8.713 10.712C8.90433 10.5207 9 10.2833 9 10C9 9.71667 8.90433 9.479 8.713 9.287C8.521 9.09567 8.28333 9 8 9C7.71667 9 7.479 9.09567 7.287 9.287C7.09567 9.479 7 9.71667 7 10C7 10.2833 7.09567 10.5207 7.287 10.712C7.479 10.904 7.71667 11 8 11ZM12 11C12.2833 11 12.521 10.904 12.713 10.712C12.9043 10.5207 13 10.2833 13 10C13 9.71667 12.9043 9.479 12.713 9.287C12.521 9.09567 12.2833 9 12 9C11.7167 9 11.4793 9.09567 11.288 9.287C11.096 9.479 11 9.71667 11 10C11 10.2833 11.096 10.5207 11.288 10.712C11.4793 10.904 11.7167 11 12 11ZM16 11C16.2833 11 16.5207 10.904 16.712 10.712C16.904 10.5207 17 10.2833 17 10C17 9.71667 16.904 9.479 16.712 9.287C16.5207 9.09567 16.2833 9 16 9C15.7167 9 15.4793 9.09567 15.288 9.287C15.096 9.479 15 9.71667 15 10C15 10.2833 15.096 10.5207 15.288 10.712C15.4793 10.904 15.7167 11 16 11ZM2 19.575V4C2 3.45 2.196 2.979 2.588 2.587C2.97933 2.19567 3.45 2 4 2H20C20.55 2 21.021 2.19567 21.413 2.587C21.8043 2.979 22 3.45 22 4V16C22 16.55 21.8043 17.021 21.413 17.413C21.021 17.8043 20.55 18 20 18H6L3.7 20.3C3.38333 20.6167 3.02067 20.6873 2.612 20.512C2.204 20.3373 2 20.025 2 19.575ZM4 17.175L5.175 16H20V4H4V17.175Z" fill="#598576"/>
</svg>
