<svg width="24" height="24" viewBox="0 0 24 24" fill="none" xmlns="http://www.w3.org/2000/svg">
<path d="M4.54989 19C3.69989 19 3.04156 18.7043 2.57489 18.113C2.10823 17.521 1.93323 16.8 2.04989 15.95L3.09989 8.45C3.24989 7.45 3.69589 6.625 4.43789 5.975C5.17923 5.325 6.04989 5 7.04989 5H16.9499C17.9499 5 18.8206 5.325 19.5619 5.975C20.3039 6.625 20.7499 7.45 20.8999 8.45L21.9499 15.95C22.0666 16.8 21.8916 17.521 21.4249 18.113C20.9582 18.7043 20.2999 19 19.4499 19C19.0999 19 18.7749 18.9373 18.4749 18.812C18.1749 18.6873 17.8999 18.5 17.6499 18.25L15.3999 16H8.59989L6.34989 18.25C6.09989 18.5 5.82489 18.6873 5.52489 18.812C5.22489 18.9373 4.89989 19 4.54989 19ZM4.94989 16.85L7.79989 14H16.1999L19.0499 16.85C19.0832 16.8833 19.2166 16.9333 19.4499 17C19.6332 17 19.7792 16.9457 19.8879 16.837C19.9959 16.729 20.0332 16.5833 19.9999 16.4L18.8999 8.7C18.8332 8.21667 18.6166 7.81233 18.2499 7.487C17.8832 7.16233 17.4499 7 16.9499 7H7.04989C6.54989 7 6.11656 7.16233 5.74989 7.487C5.38323 7.81233 5.16656 8.21667 5.09989 8.7L3.99989 16.4C3.96656 16.5833 4.00423 16.729 4.11289 16.837C4.22089 16.9457 4.36656 17 4.54989 17C4.58323 17 4.71656 16.95 4.94989 16.85ZM16.9999 13C17.2832 13 17.5206 12.904 17.7119 12.712C17.9039 12.5207 17.9999 12.2833 17.9999 12C17.9999 11.7167 17.9039 11.479 17.7119 11.287C17.5206 11.0957 17.2832 11 16.9999 11C16.7166 11 16.4792 11.0957 16.2879 11.287C16.0959 11.479 15.9999 11.7167 15.9999 12C15.9999 12.2833 16.0959 12.5207 16.2879 12.712C16.4792 12.904 16.7166 13 16.9999 13ZM14.9999 10C15.2832 10 15.5209 9.904 15.7129 9.712C15.9042 9.52067 15.9999 9.28333 15.9999 9C15.9999 8.71667 15.9042 8.479 15.7129 8.287C15.5209 8.09567 15.2832 8 14.9999 8C14.7166 8 14.4792 8.09567 14.2879 8.287C14.0959 8.479 13.9999 8.71667 13.9999 9C13.9999 9.28333 14.0959 9.52067 14.2879 9.712C14.4792 9.904 14.7166 10 14.9999 10ZM8.49989 13C8.71656 13 8.89589 12.929 9.03789 12.787C9.17923 12.6457 9.24989 12.4667 9.24989 12.25V11.25H10.2499C10.4666 11.25 10.6459 11.179 10.7879 11.037C10.9292 10.8957 10.9999 10.7167 10.9999 10.5C10.9999 10.2833 10.9292 10.104 10.7879 9.962C10.6459 9.82067 10.4666 9.75 10.2499 9.75H9.24989V8.75C9.24989 8.53333 9.17923 8.354 9.03789 8.212C8.89589 8.07067 8.71656 8 8.49989 8C8.28323 8 8.10423 8.07067 7.96289 8.212C7.82089 8.354 7.74989 8.53333 7.74989 8.75V9.75H6.74989C6.53323 9.75 6.35423 9.82067 6.21289 9.962C6.07089 10.104 5.99989 10.2833 5.99989 10.5C5.99989 10.7167 6.07089 10.8957 6.21289 11.037C6.35423 11.179 6.53323 11.25 6.74989 11.25H7.74989V12.25C7.74989 12.4667 7.82089 12.6457 7.96289 12.787C8.10423 12.929 8.28323 13 8.49989 13Z" fill="#598576"/>
</svg>
