<svg width="268" height="282" viewBox="0 0 268 282" fill="none" xmlns="http://www.w3.org/2000/svg">
<path d="M0 0H268V242C268 264.091 250.091 282 228 282H0V0Z" fill="url(#paint0_linear_1020_408)"/>
<path d="M22.444 46V27.8H25.642L32.272 38.59L30.4 38.564L37.108 27.8H40.15V46H36.796V39.162C36.796 37.602 36.8307 36.198 36.9 34.95C36.9867 33.702 37.1253 32.4627 37.316 31.232L37.732 32.35L32.09 41.06H30.374L24.914 32.428L25.278 31.232C25.4687 32.3933 25.5987 33.5893 25.668 34.82C25.7547 36.0333 25.798 37.4807 25.798 39.162V46H22.444ZM44.8337 46V32.298H48.0317V46H44.8337ZM46.3937 29.386C45.7523 29.386 45.2497 29.23 44.8857 28.918C44.539 28.5887 44.3657 28.1293 44.3657 27.54C44.3657 26.9853 44.5477 26.5347 44.9117 26.188C45.2757 25.8413 45.7697 25.668 46.3937 25.668C47.0523 25.668 47.555 25.8327 47.9017 26.162C48.2657 26.474 48.4477 26.9333 48.4477 27.54C48.4477 28.0773 48.2657 28.5193 47.9017 28.866C47.5377 29.2127 47.035 29.386 46.3937 29.386ZM52.0868 46V32.298H55.2068L55.2588 35.106L54.6608 35.418C54.8342 34.794 55.1722 34.2307 55.6748 33.728C56.1775 33.208 56.7755 32.792 57.4688 32.48C58.1622 32.168 58.8728 32.012 59.6008 32.012C60.6408 32.012 61.5075 32.22 62.2008 32.636C62.9115 33.052 63.4402 33.676 63.7868 34.508C64.1508 35.34 64.3328 36.38 64.3328 37.628V46H61.1348V37.862C61.1348 37.1687 61.0395 36.5967 60.8488 36.146C60.6582 35.678 60.3635 35.34 59.9648 35.132C59.5662 34.9067 59.0808 34.8027 58.5088 34.82C58.0408 34.82 57.6075 34.898 57.2088 35.054C56.8275 35.1927 56.4895 35.4007 56.1948 35.678C55.9175 35.938 55.6922 36.2413 55.5188 36.588C55.3628 36.9347 55.2848 37.316 55.2848 37.732V46H53.6988C53.3868 46 53.0922 46 52.8148 46C52.5548 46 52.3122 46 52.0868 46ZM69.4126 46V28.814H72.6106V46H69.4126ZM66.7086 35.262V32.298H75.6006V35.262H66.7086ZM30.166 79.26C28.8487 79.26 27.644 79.0347 26.552 78.584C25.46 78.1333 24.5153 77.492 23.718 76.66C22.9207 75.8107 22.2967 74.814 21.846 73.67C21.4127 72.5087 21.196 71.2433 21.196 69.874C21.196 68.5567 21.43 67.3347 21.898 66.208C22.366 65.0813 23.016 64.0933 23.848 63.244C24.68 62.3947 25.6507 61.736 26.76 61.268C27.8693 60.8 29.074 60.566 30.374 60.566C31.258 60.566 32.116 60.696 32.948 60.956C33.78 61.216 34.5427 61.58 35.236 62.048C35.9293 62.4987 36.51 63.0273 36.978 63.634L34.82 66C34.3693 65.532 33.9013 65.142 33.416 64.83C32.948 64.5007 32.454 64.258 31.934 64.102C31.4313 63.9287 30.9113 63.842 30.374 63.842C29.5767 63.842 28.8227 63.9893 28.112 64.284C27.4187 64.5787 26.812 64.9947 26.292 65.532C25.7893 66.0693 25.3907 66.7107 25.096 67.456C24.8013 68.184 24.654 68.9987 24.654 69.9C24.654 70.8187 24.7927 71.6507 25.07 72.396C25.3647 73.1413 25.772 73.7827 26.292 74.32C26.8293 74.8573 27.462 75.2733 28.19 75.568C28.9353 75.8453 29.75 75.984 30.634 75.984C31.206 75.984 31.7607 75.906 32.298 75.75C32.8353 75.594 33.3293 75.3773 33.78 75.1C34.248 74.8053 34.6727 74.4673 35.054 74.086L36.718 76.764C36.302 77.232 35.7473 77.6567 35.054 78.038C34.3607 78.4193 33.5807 78.7227 32.714 78.948C31.8647 79.156 31.0153 79.26 30.166 79.26ZM41.7254 84.98L44.6374 78.246L44.6634 80.378L37.9034 65.298H41.5954L45.3654 74.242C45.4868 74.4673 45.6081 74.7707 45.7294 75.152C45.8508 75.516 45.9548 75.88 46.0414 76.244L45.3914 76.452C45.5128 76.1227 45.6428 75.776 45.7814 75.412C45.9201 75.0307 46.0501 74.6407 46.1714 74.242L49.3954 65.298H53.1134L47.3934 79L45.0534 84.98H41.7254ZM62.6743 79.26C62.0677 79.26 61.4697 79.1733 60.8803 79C60.3083 78.8093 59.7883 78.558 59.3203 78.246C58.8523 77.934 58.4623 77.5873 58.1503 77.206C57.8383 76.8073 57.6303 76.4087 57.5263 76.01L58.2803 75.672L58.2023 78.948H55.1083V59.76H58.3063V68.47L57.7343 68.21C57.821 67.794 58.0117 67.404 58.3063 67.04C58.6183 66.6587 58.9997 66.3207 59.4503 66.026C59.901 65.714 60.395 65.4713 60.9323 65.298C61.4697 65.1073 62.0157 65.012 62.5703 65.012C63.801 65.012 64.8843 65.3153 65.8203 65.922C66.7737 66.5287 67.519 67.3693 68.0563 68.444C68.611 69.5187 68.8883 70.7407 68.8883 72.11C68.8883 73.4967 68.6197 74.7273 68.0823 75.802C67.545 76.8767 66.7997 77.726 65.8463 78.35C64.9103 78.9567 63.853 79.26 62.6743 79.26ZM61.9983 76.452C62.7263 76.452 63.3763 76.27 63.9483 75.906C64.5203 75.5247 64.971 75.0133 65.3003 74.372C65.6297 73.7133 65.7943 72.9593 65.7943 72.11C65.7943 71.278 65.6297 70.5413 65.3003 69.9C64.9883 69.2587 64.5463 68.756 63.9743 68.392C63.4023 68.028 62.7437 67.846 61.9983 67.846C61.253 67.846 60.5943 68.028 60.0223 68.392C59.4503 68.756 58.9997 69.2587 58.6703 69.9C58.341 70.5413 58.1763 71.278 58.1763 72.11C58.1763 72.9593 58.341 73.7133 58.6703 74.372C58.9997 75.0133 59.4503 75.5247 60.0223 75.906C60.5943 76.27 61.253 76.452 61.9983 76.452ZM78.1612 79.26C76.7225 79.26 75.4485 78.9567 74.3392 78.35C73.2472 77.7433 72.3892 76.92 71.7652 75.88C71.1585 74.8227 70.8552 73.618 70.8552 72.266C70.8552 71.1913 71.0285 70.212 71.3752 69.328C71.7219 68.444 72.1985 67.6813 72.8052 67.04C73.4292 66.3813 74.1659 65.8787 75.0152 65.532C75.8819 65.168 76.8265 64.986 77.8492 64.986C78.7505 64.986 79.5912 65.1593 80.3712 65.506C81.1512 65.8527 81.8272 66.3293 82.3992 66.936C82.9712 67.5253 83.4045 68.236 83.6992 69.068C84.0112 69.8827 84.1585 70.7753 84.1412 71.746L84.1152 72.864H73.0132L72.4152 70.68H81.4372L81.0212 71.122V70.55C80.9692 70.0127 80.7959 69.5447 80.5012 69.146C80.2065 68.73 79.8252 68.4093 79.3572 68.184C78.9065 67.9413 78.4039 67.82 77.8492 67.82C76.9999 67.82 76.2805 67.9847 75.6912 68.314C75.1192 68.6433 74.6859 69.12 74.3912 69.744C74.0965 70.3507 73.9492 71.1133 73.9492 72.032C73.9492 72.916 74.1312 73.6873 74.4952 74.346C74.8765 75.0047 75.4052 75.516 76.0812 75.88C76.7745 76.2267 77.5805 76.4 78.4992 76.4C79.1405 76.4 79.7299 76.296 80.2672 76.088C80.8045 75.88 81.3852 75.5073 82.0092 74.97L83.5952 77.18C83.1272 77.6133 82.5899 77.986 81.9832 78.298C81.3939 78.5927 80.7699 78.8267 80.1112 79C79.4525 79.1733 78.8025 79.26 78.1612 79.26ZM86.9736 79V65.298H90.1196L90.1716 69.666L89.7296 68.678C89.9202 67.9847 90.2496 67.3607 90.7176 66.806C91.1856 66.2513 91.7229 65.818 92.3296 65.506C92.9536 65.1767 93.6036 65.012 94.2796 65.012C94.5742 65.012 94.8516 65.038 95.1116 65.09C95.3889 65.142 95.6142 65.2027 95.7876 65.272L94.9296 68.782C94.7389 68.678 94.5049 68.5913 94.2276 68.522C93.9502 68.4527 93.6729 68.418 93.3956 68.418C92.9622 68.418 92.5462 68.5047 92.1476 68.678C91.7662 68.834 91.4282 69.0593 91.1336 69.354C90.8389 69.6487 90.6049 69.9953 90.4316 70.394C90.2756 70.7753 90.1976 71.2087 90.1976 71.694V79H86.9736ZM98.4889 79V60.8H106.055C107.095 60.8 108.031 61.0513 108.863 61.554C109.712 62.0567 110.388 62.7413 110.891 63.608C111.394 64.4747 111.645 65.4453 111.645 66.52C111.645 67.612 111.394 68.6 110.891 69.484C110.388 70.3507 109.712 71.044 108.863 71.564C108.031 72.084 107.095 72.344 106.055 72.344H101.869V79H98.4889ZM101.869 69.224H105.821C106.254 69.224 106.644 69.1027 106.991 68.86C107.355 68.6173 107.641 68.2967 107.849 67.898C108.074 67.4993 108.187 67.0487 108.187 66.546C108.187 66.0433 108.074 65.6013 107.849 65.22C107.641 64.8213 107.355 64.5093 106.991 64.284C106.644 64.0413 106.254 63.92 105.821 63.92H101.869V69.224ZM114.649 79V65.298H117.795L117.847 69.666L117.405 68.678C117.596 67.9847 117.925 67.3607 118.393 66.806C118.861 66.2513 119.399 65.818 120.005 65.506C120.629 65.1767 121.279 65.012 121.955 65.012C122.25 65.012 122.527 65.038 122.787 65.09C123.065 65.142 123.29 65.2027 123.463 65.272L122.605 68.782C122.415 68.678 122.181 68.5913 121.903 68.522C121.626 68.4527 121.349 68.418 121.071 68.418C120.638 68.418 120.222 68.5047 119.823 68.678C119.442 68.834 119.104 69.0593 118.809 69.354C118.515 69.6487 118.281 69.9953 118.107 70.394C117.951 70.7753 117.873 71.2087 117.873 71.694V79H114.649ZM131.275 79.26C129.905 79.26 128.683 78.9567 127.609 78.35C126.534 77.726 125.685 76.8767 125.061 75.802C124.437 74.7273 124.125 73.5053 124.125 72.136C124.125 70.7667 124.437 69.5447 125.061 68.47C125.685 67.3953 126.534 66.5547 127.609 65.948C128.683 65.324 129.905 65.012 131.275 65.012C132.627 65.012 133.84 65.324 134.915 65.948C135.989 66.5547 136.83 67.3953 137.437 68.47C138.061 69.5447 138.373 70.7667 138.373 72.136C138.373 73.5053 138.061 74.7273 137.437 75.802C136.83 76.8767 135.989 77.726 134.915 78.35C133.84 78.9567 132.627 79.26 131.275 79.26ZM131.275 76.426C132.02 76.426 132.679 76.2353 133.251 75.854C133.84 75.4727 134.299 74.9613 134.629 74.32C134.975 73.6787 135.14 72.9507 135.123 72.136C135.14 71.304 134.975 70.5673 134.629 69.926C134.299 69.2847 133.84 68.782 133.251 68.418C132.679 68.0367 132.02 67.846 131.275 67.846C130.529 67.846 129.853 68.0367 129.247 68.418C128.657 68.782 128.198 69.2933 127.869 69.952C127.539 70.5933 127.375 71.3213 127.375 72.136C127.375 72.9507 127.539 73.6787 127.869 74.32C128.198 74.9613 128.657 75.4727 129.247 75.854C129.853 76.2353 130.529 76.426 131.275 76.426ZM141.974 79V64.076C141.974 63.244 142.156 62.5073 142.52 61.866C142.884 61.2073 143.386 60.696 144.028 60.332C144.669 59.9507 145.414 59.76 146.264 59.76C146.853 59.76 147.399 59.864 147.902 60.072C148.404 60.2627 148.829 60.5313 149.176 60.878L148.188 63.296C147.962 63.1053 147.72 62.958 147.46 62.854C147.217 62.75 146.983 62.698 146.758 62.698C146.411 62.698 146.116 62.7587 145.874 62.88C145.648 62.984 145.475 63.1487 145.354 63.374C145.25 63.5993 145.198 63.868 145.198 64.18V79H143.586C143.274 79 142.979 79 142.702 79C142.442 79 142.199 79 141.974 79ZM139.842 68.392V65.584H148.292V68.392H139.842ZM151.308 79V65.298H154.506V79H151.308ZM152.868 62.386C152.226 62.386 151.724 62.23 151.36 61.918C151.013 61.5887 150.84 61.1293 150.84 60.54C150.84 59.9853 151.022 59.5347 151.386 59.188C151.75 58.8413 152.244 58.668 152.868 58.668C153.526 58.668 154.029 58.8327 154.376 59.162C154.74 59.474 154.922 59.9333 154.922 60.54C154.922 61.0773 154.74 61.5193 154.376 61.866C154.012 62.2127 153.509 62.386 152.868 62.386ZM158.576 79V59.76H161.8V79H158.576ZM171.726 79.26C170.287 79.26 169.013 78.9567 167.904 78.35C166.812 77.7433 165.954 76.92 165.33 75.88C164.723 74.8227 164.42 73.618 164.42 72.266C164.42 71.1913 164.593 70.212 164.94 69.328C165.286 68.444 165.763 67.6813 166.37 67.04C166.994 66.3813 167.73 65.8787 168.58 65.532C169.446 65.168 170.391 64.986 171.414 64.986C172.315 64.986 173.156 65.1593 173.936 65.506C174.716 65.8527 175.392 66.3293 175.964 66.936C176.536 67.5253 176.969 68.236 177.264 69.068C177.576 69.8827 177.723 70.7753 177.706 71.746L177.68 72.864H166.578L165.98 70.68H175.002L174.586 71.122V70.55C174.534 70.0127 174.36 69.5447 174.066 69.146C173.771 68.73 173.39 68.4093 172.922 68.184C172.471 67.9413 171.968 67.82 171.414 67.82C170.564 67.82 169.845 67.9847 169.256 68.314C168.684 68.6433 168.25 69.12 167.956 69.744C167.661 70.3507 167.514 71.1133 167.514 72.032C167.514 72.916 167.696 73.6873 168.06 74.346C168.441 75.0047 168.97 75.516 169.646 75.88C170.339 76.2267 171.145 76.4 172.064 76.4C172.705 76.4 173.294 76.296 173.832 76.088C174.369 75.88 174.95 75.5073 175.574 74.97L177.16 77.18C176.692 77.6133 176.154 77.986 175.548 78.298C174.958 78.5927 174.334 78.8267 173.676 79C173.017 79.1733 172.367 79.26 171.726 79.26Z" fill="black"/>
<path d="M39.8525 233.029C39.1877 232.588 38.3001 233.065 38.3001 233.862V234.636C38.3001 235.189 37.8524 235.636 37.3001 235.636H21C20.4477 235.636 20 236.084 20 236.636V237.364C20 237.916 20.4477 238.364 21 238.364H37.3001C37.8524 238.364 38.3001 238.811 38.3001 239.364V240.138C38.3001 240.935 39.1877 241.412 39.8525 240.971L44.5881 237.834C45.1849 237.438 45.1849 236.562 44.5881 236.166L39.8525 233.029Z" fill="black"/>
<path d="M159.478 138.287L151.78 225.339C150.8 236.422 159.053 246.174 170.145 247.04L212.753 250.368C224.133 251.256 233.949 242.455 234.3 231.045L237.261 134.963C237.646 122.487 226.635 112.711 214.293 114.569L176.423 120.271C167.294 121.646 160.291 129.09 159.478 138.287Z" stroke="black" stroke-width="6"/>
<defs>
<linearGradient id="paint0_linear_1020_408" x1="2.56576e-06" y1="141.59" x2="278.15" y2="165.91" gradientUnits="userSpaceOnUse">
<stop stop-color="#75FBAB"/>
<stop offset="1" stop-color="#43E7AC"/>
</linearGradient>
</defs>
</svg>
