<svg width="20" height="20" viewBox="0 0 20 20" fill="none" xmlns="http://www.w3.org/2000/svg">
<path d="M13 19.5V13.5H15V16.225C15.9167 15.475 16.646 14.5667 17.188 13.5C17.7293 12.4334 18 11.2667 18 10C18 7.95005 17.3293 6.17905 15.988 4.68705C14.646 3.19572 12.9833 2.32505 11 2.07505V0.0500488C13.5333 0.300049 15.6667 1.36672 17.4 3.25005C19.1333 5.13338 20 7.38338 20 10C20 11.5167 19.6957 12.9167 19.087 14.2C18.479 15.4834 17.65 16.5834 16.6 17.5H19V19.5H13ZM9 19.9501C7.73333 19.8167 6.55433 19.4711 5.463 18.913C4.371 18.3544 3.421 17.629 2.613 16.737C1.80433 15.8457 1.16667 14.825 0.7 13.675C0.233333 12.525 0 11.3 0 10C0 8.48338 0.304333 7.08338 0.913 5.80005C1.521 4.51672 2.35 3.41672 3.4 2.50005H1V0.500049H7V6.50005H5V3.77505C4.08333 4.50838 3.354 5.41271 2.812 6.48805C2.27067 7.56272 2 8.73338 2 10C2 12.05 2.671 13.8207 4.013 15.312C5.35433 16.804 7.01667 17.675 9 17.925V19.9501Z" fill="#808080"/>
</svg>
