<svg width="24" height="24" viewBox="0 0 24 24" fill="none" xmlns="http://www.w3.org/2000/svg">
<path d="M4 15C3.16667 15 2.45833 14.7083 1.875 14.125C1.29167 13.5417 1 12.8333 1 12C1 11.1667 1.29167 10.4583 1.875 9.875C2.45833 9.29167 3.16667 9 4 9V7C4 6.45 4.196 5.97933 4.588 5.588C4.97933 5.196 5.45 5 6 5H9C9 4.16667 9.29167 3.45833 9.875 2.875C10.4583 2.29167 11.1667 2 12 2C12.8333 2 13.5417 2.29167 14.125 2.875C14.7083 3.45833 15 4.16667 15 5H18C18.55 5 19.021 5.196 19.413 5.588C19.8043 5.97933 20 6.45 20 7V9C20.8333 9 21.5417 9.29167 22.125 9.875C22.7083 10.4583 23 11.1667 23 12C23 12.8333 22.7083 13.5417 22.125 14.125C21.5417 14.7083 20.8333 15 20 15V19C20 19.55 19.8043 20.021 19.413 20.413C19.021 20.8043 18.55 21 18 21H6C5.45 21 4.97933 20.8043 4.588 20.413C4.196 20.021 4 19.55 4 19V15ZM9 13C9.41667 13 9.77067 12.854 10.062 12.562C10.354 12.2707 10.5 11.9167 10.5 11.5C10.5 11.0833 10.354 10.7293 10.062 10.438C9.77067 10.146 9.41667 10 9 10C8.58333 10 8.22933 10.146 7.938 10.438C7.646 10.7293 7.5 11.0833 7.5 11.5C7.5 11.9167 7.646 12.2707 7.938 12.562C8.22933 12.854 8.58333 13 9 13ZM15 13C15.4167 13 15.7707 12.854 16.062 12.562C16.354 12.2707 16.5 11.9167 16.5 11.5C16.5 11.0833 16.354 10.7293 16.062 10.438C15.7707 10.146 15.4167 10 15 10C14.5833 10 14.2293 10.146 13.938 10.438C13.646 10.7293 13.5 11.0833 13.5 11.5C13.5 11.9167 13.646 12.2707 13.938 12.562C14.2293 12.854 14.5833 13 15 13ZM9 17H15C15.2833 17 15.521 16.904 15.713 16.712C15.9043 16.5207 16 16.2833 16 16C16 15.7167 15.9043 15.479 15.713 15.287C15.521 15.0957 15.2833 15 15 15H9C8.71667 15 8.47933 15.0957 8.288 15.287C8.096 15.479 8 15.7167 8 16C8 16.2833 8.096 16.5207 8.288 16.712C8.47933 16.904 8.71667 17 9 17ZM6 19H18V7H6V19Z" fill="#808080"/>
</svg>
