<svg width="24" height="24" viewBox="0 0 24 24" fill="none" xmlns="http://www.w3.org/2000/svg">
<path d="M8 17H13C13.2833 17 13.521 16.904 13.713 16.712C13.9043 16.5207 14 16.2833 14 16C14 15.7167 13.9043 15.479 13.713 15.287C13.521 15.0957 13.2833 15 13 15H8C7.71667 15 7.479 15.0957 7.287 15.287C7.09567 15.479 7 15.7167 7 16C7 16.2833 7.09567 16.5207 7.287 16.712C7.479 16.904 7.71667 17 8 17ZM8 13H16C16.2833 13 16.5207 12.904 16.712 12.712C16.904 12.5207 17 12.2833 17 12C17 11.7167 16.904 11.479 16.712 11.287C16.5207 11.0957 16.2833 11 16 11H8C7.71667 11 7.479 11.0957 7.287 11.287C7.09567 11.479 7 11.7167 7 12C7 12.2833 7.09567 12.5207 7.287 12.712C7.479 12.904 7.71667 13 8 13ZM8 9H16C16.2833 9 16.5207 8.904 16.712 8.712C16.904 8.52067 17 8.28333 17 8C17 7.71667 16.904 7.479 16.712 7.287C16.5207 7.09567 16.2833 7 16 7H8C7.71667 7 7.479 7.09567 7.287 7.287C7.09567 7.479 7 7.71667 7 8C7 8.28333 7.09567 8.52067 7.287 8.712C7.479 8.904 7.71667 9 8 9ZM5 21C4.45 21 3.979 20.8043 3.587 20.413C3.19567 20.021 3 19.55 3 19V5C3 4.45 3.19567 3.979 3.587 3.587C3.979 3.19567 4.45 3 5 3H9.2C9.41667 2.4 9.77933 1.91667 10.288 1.55C10.796 1.18333 11.3667 1 12 1C12.6333 1 13.2043 1.18333 13.713 1.55C14.221 1.91667 14.5833 2.4 14.8 3H19C19.55 3 20.021 3.19567 20.413 3.587C20.8043 3.979 21 4.45 21 5V19C21 19.55 20.8043 20.021 20.413 20.413C20.021 20.8043 19.55 21 19 21H5ZM12 4.25C12.2167 4.25 12.396 4.179 12.538 4.037C12.6793 3.89567 12.75 3.71667 12.75 3.5C12.75 3.28333 12.6793 3.104 12.538 2.962C12.396 2.82067 12.2167 2.75 12 2.75C11.7833 2.75 11.6043 2.82067 11.463 2.962C11.321 3.104 11.25 3.28333 11.25 3.5C11.25 3.71667 11.321 3.89567 11.463 4.037C11.6043 4.179 11.7833 4.25 12 4.25ZM5 19H19V5H5V19Z" fill="#598576"/>
</svg>

