<svg width="24" height="24" viewBox="0 0 24 24" fill="none" xmlns="http://www.w3.org/2000/svg">
<path d="M12 20.5498C11.8167 20.5498 11.6377 20.5248 11.463 20.4748C11.2877 20.4248 11.125 20.3581 10.975 20.2748C10.2917 19.8581 9.575 19.5414 8.825 19.3248C8.075 19.1081 7.3 18.9998 6.5 18.9998C5.8 18.9998 5.11267 19.0914 4.438 19.2748C3.76267 19.4581 3.11667 19.7164 2.5 20.0498C2.15 20.2331 1.81267 20.2248 1.488 20.0248C1.16267 19.8248 1 19.5331 1 19.1498V7.09977C1 6.91644 1.046 6.74144 1.138 6.57477C1.22933 6.40811 1.36667 6.28311 1.55 6.19977C2.31667 5.79977 3.11667 5.49977 3.95 5.29977C4.78333 5.09977 5.63333 4.99977 6.5 4.99977C7.46667 4.99977 8.41267 5.12477 9.338 5.37477C10.2627 5.62477 11.15 5.99977 12 6.49977V18.5998C12.85 18.0664 13.7417 17.6664 14.675 17.3998C15.6083 17.1331 16.55 16.9998 17.5 16.9998C18.1 16.9998 18.6877 17.0498 19.263 17.1498C19.8377 17.2498 20.4167 17.3998 21 17.5998V5.59977C21.25 5.68311 21.496 5.77044 21.738 5.86177C21.9793 5.95377 22.2167 6.06644 22.45 6.19977C22.6333 6.28311 22.771 6.40811 22.863 6.57477C22.9543 6.74144 23 6.91644 23 7.09977V19.1498C23 19.5331 22.8377 19.8248 22.513 20.0248C22.1877 20.2248 21.85 20.2331 21.5 20.0498C20.8833 19.7164 20.2373 19.4581 19.562 19.2748C18.8873 19.0914 18.2 18.9998 17.5 18.9998C16.7 18.9998 15.925 19.1081 15.175 19.3248C14.425 19.5414 13.7083 19.8581 13.025 20.2748C12.875 20.3581 12.7127 20.4248 12.538 20.4748C12.3627 20.5248 12.1833 20.5498 12 20.5498ZM14.825 15.2498C14.6583 15.3998 14.4793 15.4288 14.288 15.3368C14.096 15.2454 14 15.0914 14 14.8748V6.69977C14 6.66644 14.05 6.54977 14.15 6.34977L18.15 2.34977C18.3167 2.18311 18.5 2.14144 18.7 2.22477C18.9 2.30811 19 2.46644 19 2.69977V11.2748C19 11.3414 18.9417 11.4664 18.825 11.6498L14.825 15.2498ZM10 17.6248V7.72477C9.45 7.49144 8.87933 7.31244 8.288 7.18777C7.696 7.06244 7.1 6.99977 6.5 6.99977C5.88333 6.99977 5.28333 7.05811 4.7 7.17477C4.11667 7.29144 3.55 7.46644 3 7.69977V17.6248C3.58333 17.4081 4.16267 17.2498 4.738 17.1498C5.31267 17.0498 5.9 16.9998 6.5 16.9998C7.1 16.9998 7.68733 17.0498 8.262 17.1498C8.83733 17.2498 9.41667 17.4081 10 17.6248Z" fill="#598576"/>
</svg>
