<svg width="24" height="24" viewBox="0 0 24 24" fill="none" xmlns="http://www.w3.org/2000/svg">
<path d="M18.85 21.975C18.7167 21.975 18.5917 21.9543 18.475 21.913C18.3583 21.871 18.25 21.8 18.15 21.7L13.1429 16.6929C12.9554 16.5054 12.85 16.251 12.85 15.9858V15.8142C12.85 15.549 12.9554 15.2946 13.1429 15.1071L15.0821 13.1679C15.2696 12.9804 15.524 12.875 15.7892 12.875H15.9608C16.226 12.875 16.4804 12.9804 16.6679 13.1679L21.675 18.175C21.775 18.275 21.846 18.3833 21.888 18.5C21.9293 18.6167 21.95 18.7417 21.95 18.875C21.95 19.0083 21.9293 19.1333 21.888 19.25C21.846 19.3667 21.775 19.475 21.675 19.575L19.55 21.7C19.45 21.8 19.3417 21.871 19.225 21.913C19.1083 21.9543 18.9833 21.975 18.85 21.975ZM18.85 19.6L19.575 18.875L15.325 14.625L14.6 15.35L18.85 19.6ZM5.125 22C4.99167 22 4.86267 21.975 4.738 21.925C4.61267 21.875 4.5 21.8 4.4 21.7L2.3 19.6C2.2 19.5 2.125 19.3873 2.075 19.262C2.025 19.1373 2 19.0083 2 18.875C2 18.7417 2.025 18.6167 2.075 18.5C2.125 18.3833 2.2 18.275 2.3 18.175L7.01421 13.4608C7.38929 13.0857 7.89799 12.875 8.42843 12.875H9.725L10.575 12.025L6.74289 8.19289C6.55536 8.00536 6.301 7.9 6.03579 7.9H5.85343C5.32299 7.9 4.81429 7.68929 4.43921 7.31421L2.70711 5.58211C2.31658 5.19158 2.31658 4.55842 2.70711 4.16789L4.11789 2.75711C4.50842 2.36658 5.14158 2.36658 5.53211 2.75711L7.26421 4.48921C7.63929 4.86429 7.85 5.37299 7.85 5.90343V6.08579C7.85 6.351 7.95536 6.60536 8.14289 6.79289L11.975 10.625L14.3375 8.2625C14.6344 7.96565 14.6344 7.48435 14.3375 7.1875V7.1875C14.0406 6.89065 14.0406 6.40935 14.3375 6.1125L15.2 5.25H12.6649C12.4793 5.25 12.3013 5.17625 12.17 5.04497V5.04497C11.8966 4.77161 11.8966 4.32839 12.17 4.05503L14.73 1.49497C15.0034 1.22161 15.4466 1.22161 15.72 1.49497V1.49497C15.8513 1.62625 15.925 1.8043 15.925 1.98995V4.525L16.6179 3.83211C17.0084 3.44158 17.6416 3.44158 18.0321 3.83211L20.875 6.675C21.175 6.95833 21.396 7.28333 21.538 7.65C21.6793 8.01667 21.75 8.39167 21.75 8.775C21.75 9.15833 21.6793 9.53333 21.538 9.9C21.5129 9.96486 21.4853 10.0287 21.4552 10.0915C21.2167 10.5896 20.5584 10.5834 20.1679 10.1929L19.45 9.475C19.0634 9.0884 18.4366 9.0884 18.05 9.475L17.875 9.65C17.5851 9.93995 17.1149 9.93995 16.825 9.65V9.65C16.5351 9.36005 16.0649 9.36005 15.775 9.65L11.125 14.3V15.5716C11.125 16.102 10.9143 16.6107 10.5392 16.9858L5.825 21.7C5.725 21.8 5.61667 21.875 5.5 21.925C5.38333 21.975 5.25833 22 5.125 22ZM5.125 19.6L9.375 15.35L8.65 14.625L4.4 18.875L5.125 19.6Z" fill="#598576"/>
</svg>
