<svg width="24" height="24" viewBox="0 0 24 24" fill="none" xmlns="http://www.w3.org/2000/svg">
<path d="M13.8748 22H10.1248C9.87485 22 9.65818 21.9167 9.47485 21.75C9.29152 21.5833 9.18318 21.375 9.14985 21.125L8.84985 18.8C8.63318 18.7167 8.42918 18.6167 8.23785 18.5C8.04585 18.3833 7.85818 18.2583 7.67485 18.125L5.49985 19.025C5.26652 19.1083 5.03318 19.1167 4.79985 19.05C4.56652 18.9833 4.38318 18.8417 4.24985 18.625L2.39985 15.4C2.26652 15.1833 2.22485 14.95 2.27485 14.7C2.32485 14.45 2.44985 14.25 2.64985 14.1L4.52485 12.675C4.50818 12.5583 4.49985 12.4457 4.49985 12.337C4.49985 12.229 4.49985 12.1167 4.49985 12C4.49985 11.8833 4.49985 11.7707 4.49985 11.662C4.49985 11.554 4.50818 11.4417 4.52485 11.325L2.64985 9.9C2.44985 9.75 2.32485 9.55 2.27485 9.3C2.22485 9.05 2.26652 8.81667 2.39985 8.6L4.24985 5.375C4.36652 5.14167 4.54552 4.99567 4.78685 4.937C5.02885 4.879 5.26652 4.89167 5.49985 4.975L7.67485 5.875C7.85818 5.74167 8.04985 5.61667 8.24985 5.5C8.44985 5.38333 8.64985 5.28333 8.84985 5.2L9.14985 2.875C9.18318 2.625 9.29152 2.41667 9.47485 2.25C9.65818 2.08333 9.87485 2 10.1248 2H13.8748C14.1248 2 14.3415 2.08333 14.5248 2.25C14.7082 2.41667 14.8165 2.625 14.8498 2.875L15.1498 5.2C15.3665 5.28333 15.5708 5.38333 15.7628 5.5C15.9542 5.61667 16.1415 5.74167 16.3249 5.875L18.4998 4.975C18.7332 4.89167 18.9665 4.88333 19.1999 4.95C19.4332 5.01667 19.6165 5.15833 19.7498 5.375L21.5998 8.6C21.7332 8.81667 21.7748 9.05 21.7248 9.3C21.6748 9.55 21.5498 9.75 21.3498 9.9L19.4748 11.325C19.4915 11.4417 19.4998 11.554 19.4998 11.662C19.4998 11.7707 19.4998 11.8833 19.4998 12C19.4998 12.1167 19.4998 12.229 19.4998 12.337C19.4998 12.4457 19.4832 12.5583 19.4499 12.675L21.3249 14.1C21.5249 14.25 21.6499 14.45 21.6999 14.7C21.7499 14.95 21.7082 15.1833 21.5749 15.4L19.7248 18.6C19.5915 18.8167 19.4042 18.9627 19.1628 19.038C18.9208 19.1127 18.6832 19.1083 18.4499 19.025L16.3249 18.125C16.1415 18.2583 15.9498 18.3833 15.7498 18.5C15.5498 18.6167 15.3498 18.7167 15.1498 18.8L14.8498 21.125C14.8165 21.375 14.7082 21.5833 14.5248 21.75C14.3415 21.9167 14.1248 22 13.8748 22ZM12.0498 15.5C13.0165 15.5 13.8415 15.1583 14.5248 14.475C15.2082 13.7917 15.5498 12.9667 15.5498 12C15.5498 11.0333 15.2082 10.2083 14.5248 9.525C13.8415 8.84167 13.0165 8.5 12.0498 8.5C11.0665 8.5 10.2372 8.84167 9.56185 9.525C8.88718 10.2083 8.54985 11.0333 8.54985 12C8.54985 12.9667 8.88718 13.7917 9.56185 14.475C10.2372 15.1583 11.0665 15.5 12.0498 15.5ZM12.0498 13.5C11.6332 13.5 11.2792 13.354 10.9878 13.062C10.6958 12.7707 10.5498 12.4167 10.5498 12C10.5498 11.5833 10.6958 11.2293 10.9878 10.938C11.2792 10.646 11.6332 10.5 12.0498 10.5C12.4665 10.5 12.8208 10.646 13.1128 10.938C13.4042 11.2293 13.5498 11.5833 13.5498 12C13.5498 12.4167 13.4042 12.7707 13.1128 13.062C12.8208 13.354 12.4665 13.5 12.0498 13.5ZM10.9998 20H12.9748L13.3248 17.35C13.8415 17.2167 14.3208 17.0207 14.7628 16.762C15.2042 16.504 15.6082 16.1917 15.9748 15.825L18.4499 16.85L19.4248 15.15L17.2748 13.525C17.3582 13.2917 17.4165 13.0457 17.4499 12.787C17.4832 12.529 17.4998 12.2667 17.4998 12C17.4998 11.7333 17.4832 11.4707 17.4499 11.212C17.4165 10.954 17.3582 10.7083 17.2748 10.475L19.4248 8.85L18.4499 7.15L15.9748 8.2C15.6082 7.81667 15.2042 7.49567 14.7628 7.237C14.3208 6.979 13.8415 6.78333 13.3248 6.65L12.9998 4H11.0248L10.6748 6.65C10.1582 6.78333 9.67918 6.979 9.23785 7.237C8.79585 7.49567 8.39152 7.80833 8.02485 8.175L5.54985 7.15L4.57485 8.85L6.72485 10.45C6.64152 10.7 6.58318 10.95 6.54985 11.2C6.51652 11.45 6.49985 11.7167 6.49985 12C6.49985 12.2667 6.51652 12.525 6.54985 12.775C6.58318 13.025 6.64152 13.275 6.72485 13.525L4.57485 15.15L5.54985 16.85L8.02485 15.8C8.39152 16.1833 8.79585 16.504 9.23785 16.762C9.67918 17.0207 10.1582 17.2167 10.6748 17.35L10.9998 20Z" fill="#598576"/>
</svg>
