<svg width="22" height="19" viewBox="0 0 22 19" fill="none" xmlns="http://www.w3.org/2000/svg">
<path d="M10 16H2C1.45 16 0.979333 15.8043 0.588 15.413C0.196 15.021 0 14.55 0 14V2C0 1.45 0.196 0.979333 0.588 0.588C0.979333 0.196 1.45 0 2 0H18C18.55 0 19.021 0.196 19.413 0.588C19.8043 0.979333 20 1.45 20 2V7H18V2H2V14H10V16ZM7.5 12.5V3.5L14.5 8L7.5 12.5ZM15.85 19L15.55 17.5C15.35 17.4167 15.1627 17.3293 14.988 17.238C14.8127 17.146 14.6333 17.0333 14.45 16.9L13 17.35L12 15.65L13.15 14.65C13.1167 14.4167 13.1 14.2 13.1 14C13.1 13.8 13.1167 13.5833 13.15 13.35L12 12.35L13 10.65L14.45 11.1C14.6333 10.9667 14.8127 10.854 14.988 10.762C15.1627 10.6707 15.35 10.5833 15.55 10.5L15.85 9H17.85L18.15 10.5C18.35 10.5833 18.5377 10.675 18.713 10.775C18.8877 10.875 19.0667 11 19.25 11.15L20.7 10.65L21.7 12.4L20.55 13.4C20.5833 13.6 20.6 13.8083 20.6 14.025C20.6 14.2417 20.5833 14.45 20.55 14.65L21.7 15.65L20.7 17.35L19.25 16.9C19.0667 17.0333 18.8877 17.146 18.713 17.238C18.5377 17.3293 18.35 17.4167 18.15 17.5L17.85 19H15.85ZM16.85 16C17.4 16 17.871 15.8043 18.263 15.413C18.6543 15.021 18.85 14.55 18.85 14C18.85 13.45 18.6543 12.979 18.263 12.587C17.871 12.1957 17.4 12 16.85 12C16.3 12 15.8293 12.1957 15.438 12.587C15.046 12.979 14.85 13.45 14.85 14C14.85 14.55 15.046 15.021 15.438 15.413C15.8293 15.8043 16.3 16 16.85 16Z" fill="#598576"/>
</svg>
