<svg width="24" height="24" viewBox="0 0 24 24" fill="none" xmlns="http://www.w3.org/2000/svg">
<path d="M17.7999 22.9501C19.1332 22.7668 20.2792 22.1961 21.2379 21.2381C22.1959 20.2794 22.7666 19.1334 22.9499 17.8001C22.9832 17.5834 22.9209 17.3961 22.7629 17.2381C22.6042 17.0794 22.4082 17.0001 22.1749 17.0001C21.9916 17.0001 21.8332 17.0668 21.6999 17.2001C21.5666 17.3334 21.4832 17.4918 21.4499 17.6751C21.2999 18.6584 20.8792 19.4961 20.1879 20.1881C19.4959 20.8794 18.6582 21.3001 17.6749 21.4501C17.4916 21.4834 17.3332 21.5708 17.1999 21.7121C17.0666 21.8541 16.9999 22.0168 16.9999 22.2001C16.9999 22.4334 17.0792 22.6251 17.2379 22.7751C17.3959 22.9251 17.5832 22.9834 17.7999 22.9501ZM1.7999 7.00011C1.98324 7.00011 2.1459 6.93344 2.2879 6.80011C2.42924 6.66677 2.51657 6.50844 2.5499 6.32511C2.6999 5.35844 3.1249 4.52511 3.8249 3.82511C4.5249 3.12511 5.35824 2.70011 6.3249 2.55011C6.50824 2.51677 6.66657 2.42911 6.7999 2.28711C6.93324 2.14577 6.9999 1.98344 6.9999 1.80011C6.9999 1.56677 6.9209 1.37511 6.7629 1.22511C6.60424 1.07511 6.41657 1.01677 6.1999 1.05011C4.86657 1.23344 3.7209 1.80411 2.7629 2.76211C1.80424 3.72077 1.23324 4.86677 1.0499 6.20011C1.01657 6.41677 1.0749 6.60411 1.2249 6.76211C1.3749 6.92077 1.56657 7.00011 1.7999 7.00011ZM3.5249 20.4751C1.85824 18.8084 1.0249 16.8084 1.0249 14.4751C1.0249 12.1418 1.85824 10.1418 3.5249 8.47511L7.0499 4.92511C7.53324 4.44177 8.12057 4.20011 8.8119 4.20011C9.5039 4.20011 10.0916 4.44177 10.5749 4.92511C10.6416 4.99177 10.7042 5.05844 10.7629 5.12511C10.8209 5.19177 10.8666 5.25844 10.8999 5.32511L13.4249 2.80011C13.9082 2.31677 14.4959 2.07511 15.1879 2.07511C15.8792 2.07511 16.4666 2.31677 16.9499 2.80011C17.0332 2.88344 17.0999 2.95844 17.1499 3.02511C17.1999 3.09177 17.2499 3.15844 17.2999 3.22511C17.7832 2.89177 18.3249 2.75011 18.9249 2.80011C19.5249 2.85011 20.0416 3.09177 20.4749 3.52511C20.8582 3.90844 21.0916 4.34577 21.1749 4.83711C21.2582 5.32911 21.1999 5.81677 20.9999 6.30011C21.0999 6.35011 21.1959 6.40844 21.2879 6.47511C21.3792 6.54177 21.4666 6.61677 21.5499 6.70011C22.0332 7.18344 22.2749 7.77111 22.2749 8.46311C22.2749 9.15444 22.0332 9.74177 21.5499 10.2251L21.1499 10.6251C21.2166 10.6584 21.2832 10.7041 21.3499 10.7621C21.4166 10.8208 21.4832 10.8834 21.5499 10.9501C22.0332 11.4334 22.2749 12.0208 22.2749 12.7121C22.2749 13.4041 22.0332 13.9918 21.5499 14.4751L15.5249 20.4751C13.8582 22.1418 11.8582 22.9751 9.5249 22.9751C7.19157 22.9751 5.19157 22.1418 3.5249 20.4751ZM6.6999 9.52511L9.1749 7.05011C9.2749 6.95011 9.3249 6.83344 9.3249 6.70011C9.3249 6.56677 9.2749 6.45011 9.1749 6.35011C9.0749 6.25011 8.95824 6.20411 8.8249 6.21211C8.69157 6.22077 8.5749 6.26677 8.4749 6.35011L4.9249 9.87511C4.29157 10.5084 3.81657 11.2251 3.4999 12.0251C3.18324 12.8251 3.0249 13.6418 3.0249 14.4751C3.0249 15.3084 3.18324 16.1251 3.4999 16.9251C3.81657 17.7251 4.29157 18.4418 4.9249 19.0751C5.55824 19.7084 6.2749 20.1834 7.0749 20.5001C7.8749 20.8168 8.69157 20.9751 9.5249 20.9751C10.3582 20.9751 11.1749 20.8168 11.9749 20.5001C12.7749 20.1834 13.4916 19.7084 14.1249 19.0751L20.1249 13.0501C20.2249 12.9501 20.2749 12.8334 20.2749 12.7001C20.2749 12.5668 20.2249 12.4501 20.1249 12.3501C20.0249 12.2501 19.9082 12.2001 19.7749 12.2001C19.6416 12.2001 19.5249 12.2501 19.4249 12.3501L16.5999 15.1751C16.4166 15.3584 16.1832 15.4541 15.8999 15.4621C15.6166 15.4708 15.3832 15.3751 15.1999 15.1751C14.9999 14.9584 14.8999 14.7168 14.8999 14.4501C14.8999 14.1834 14.9999 13.9501 15.1999 13.7501L20.1249 8.82511C20.2249 8.72511 20.2749 8.60411 20.2749 8.46211C20.2749 8.32077 20.2249 8.20011 20.1249 8.10011C20.0249 8.01677 19.9082 7.97077 19.7749 7.96211C19.6416 7.95411 19.5249 8.00011 19.4249 8.10011L15.1749 12.3501C14.9749 12.5501 14.7416 12.6501 14.4749 12.6501C14.2082 12.6501 13.9749 12.5501 13.7749 12.3501C13.5749 12.1501 13.4749 11.9124 13.4749 11.6371C13.4749 11.3624 13.5749 11.1251 13.7749 10.9251L19.0749 5.62511C19.1749 5.52511 19.2249 5.40844 19.2249 5.27511C19.2249 5.14177 19.1749 5.02511 19.0749 4.92511C18.9749 4.82511 18.8582 4.77511 18.7249 4.77511C18.5916 4.77511 18.4749 4.82511 18.3749 4.92511L13.0499 10.2501C12.8666 10.4334 12.6332 10.5251 12.3499 10.5251C12.0666 10.5251 11.8332 10.4251 11.6499 10.2251C11.4499 10.0251 11.3499 9.79177 11.3499 9.52511C11.3499 9.25844 11.4499 9.02511 11.6499 8.82511L15.5249 4.92511C15.6249 4.82511 15.6749 4.70844 15.6749 4.57511C15.6749 4.44177 15.6249 4.32511 15.5249 4.22511C15.4416 4.12511 15.3292 4.07511 15.1879 4.07511C15.0459 4.07511 14.9249 4.12511 14.8249 4.22511L8.5249 10.5251C8.80824 11.2584 8.91657 12.0084 8.8499 12.7751C8.78324 13.5418 8.5499 14.2668 8.1499 14.9501C7.98324 15.2334 7.73757 15.3791 7.4129 15.3871C7.08757 15.3958 6.7999 15.2751 6.5499 15.0251C6.41657 14.8918 6.34157 14.7124 6.3249 14.4871C6.30824 14.2624 6.35824 14.0501 6.4749 13.8501C6.7249 13.4168 6.85824 12.9541 6.8749 12.4621C6.89157 11.9708 6.79157 11.5001 6.5749 11.0501C6.44157 10.7668 6.38324 10.4874 6.3999 10.2121C6.41657 9.93744 6.51657 9.70844 6.6999 9.52511Z" fill="#598576"/>
</svg>
