<svg width="24" height="24" viewBox="0 0 24 24" fill="none" xmlns="http://www.w3.org/2000/svg">
<g clip-path="url(#clip0_3321_2500)">
<path fill-rule="evenodd" clip-rule="evenodd" d="M23 8H1V15.3333H7.11111V16.5556H12V15.3333H23V8ZM21.7777 9.22222V9.22217H14.4443V14.1111H14.4444V14.1111H16.8889V10.4444H18.111V14.1111H18.1111V14.1111H19.3333V10.4444H20.5554V14.1111H20.5556V14.1111H21.7778V9.22222H21.7777ZM4.66667 14.1111H2.22222V9.22222H7.11111V14.1111H5.88889V10.4444H4.66667V14.1111ZM8.33333 9.22222V15.3333H10.7778V14.1111H13.2222V9.22222H8.33333ZM12 12.8889H10.7778V10.4444H12V12.8889Z" fill="#000000"/>
</g>
<defs>
<clipPath id="clip0_3321_2500">
<rect width="22" height="8.55556" fill="white" transform="translate(1 8)"/>
</clipPath>
</defs>
</svg>
