<svg width="20" height="19" viewBox="0 0 20 19" fill="none" xmlns="http://www.w3.org/2000/svg">
<path d="M16.9 18.5001L11.425 13.0251L13.525 10.9251L19 16.4001L16.9 18.5001ZM3.1 18.5001L1 16.4001L7.9 9.5001L6.2 7.8001L5.5 8.5001L4.225 7.2251V9.2751L3.525 9.9751L0.5 6.9501L1.2 6.2501H3.25L2 5.0001L5.55 1.4501C5.88333 1.11676 6.24167 0.875098 6.625 0.725098C7.00833 0.575098 7.4 0.500098 7.8 0.500098C8.2 0.500098 8.59167 0.575098 8.975 0.725098C9.35833 0.875098 9.71667 1.11676 10.05 1.4501L7.75 3.7501L9 5.0001L8.3 5.7001L10 7.4001L12.25 5.1501C12.1833 4.96676 12.1293 4.7751 12.088 4.5751C12.046 4.3751 12.025 4.1751 12.025 3.9751C12.025 2.99176 12.3627 2.16243 13.038 1.4871C13.7127 0.812431 14.5417 0.475098 15.525 0.475098C15.775 0.475098 16.0127 0.500098 16.238 0.550098C16.4627 0.600098 16.6917 0.675098 16.925 0.775098L14.45 3.2501L16.25 5.0501L18.725 2.5751C18.8417 2.80843 18.921 3.03743 18.963 3.2621C19.0043 3.48743 19.025 3.7251 19.025 3.9751C19.025 4.95843 18.6877 5.78743 18.013 6.4621C17.3377 7.13743 16.5083 7.4751 15.525 7.4751C15.325 7.4751 15.125 7.45843 14.925 7.4251C14.725 7.39176 14.5333 7.33343 14.35 7.2501L3.1 18.5001Z" fill="#598576"/>
</svg>
