<svg width="22" height="21" viewBox="0 0 22 21" fill="none" xmlns="http://www.w3.org/2000/svg">
<path d="M8.24995 20.5L7.84995 17.3C7.63329 17.2167 7.42928 17.1167 7.23795 17C7.04595 16.8833 6.85828 16.7583 6.67495 16.625L3.69995 17.875L0.949951 13.125L3.52495 11.175C3.50828 11.0583 3.49995 10.9457 3.49995 10.837C3.49995 10.729 3.49995 10.6167 3.49995 10.5C3.49995 10.3833 3.49995 10.2707 3.49995 10.162C3.49995 10.054 3.50828 9.94167 3.52495 9.825L0.949951 7.875L3.69995 3.125L6.67495 4.375C6.85828 4.24167 7.04995 4.11667 7.24995 4C7.44995 3.88333 7.64995 3.78333 7.84995 3.7L8.24995 0.5H13.75L14.15 3.7C14.3666 3.78333 14.571 3.88333 14.763 4C14.9543 4.11667 15.1416 4.24167 15.325 4.375L18.2999 3.125L21.0499 7.875L18.475 9.825C18.4916 9.94167 18.5 10.054 18.5 10.162C18.5 10.2707 18.5 10.3833 18.5 10.5C18.5 10.6167 18.5 10.729 18.5 10.837C18.5 10.9457 18.4833 11.0583 18.45 11.175L21.025 13.125L18.275 17.875L15.325 16.625C15.1416 16.7583 14.95 16.8833 14.75 17C14.55 17.1167 14.35 17.2167 14.15 17.3L13.75 20.5H8.24995ZM11.05 14C12.0166 14 12.8416 13.6583 13.525 12.975C14.2083 12.2917 14.55 11.4667 14.55 10.5C14.55 9.53333 14.2083 8.70833 13.525 8.025C12.8416 7.34167 12.0166 7 11.05 7C10.0666 7 9.23728 7.34167 8.56195 8.025C7.88729 8.70833 7.54995 9.53333 7.54995 10.5C7.54995 11.4667 7.88729 12.2917 8.56195 12.975C9.23728 13.6583 10.0666 14 11.05 14Z" fill="#598576"/>
</svg>
