<svg width="23" height="23" viewBox="0 0 23 23" fill="none" xmlns="http://www.w3.org/2000/svg">
<path d="M16 22.5V21C17.25 21 18.3127 20.5627 19.188 19.688C20.0627 18.8127 20.5 17.75 20.5 16.5H22C22 18.1667 21.4167 19.5833 20.25 20.75C19.0833 21.9167 17.6667 22.5 16 22.5ZM0 6.5C0 4.83333 0.583333 3.41667 1.75 2.25C2.91667 1.08333 4.33333 0.5 6 0.5V2C4.75 2 3.68733 2.43733 2.812 3.312C1.93733 4.18733 1.5 5.25 1.5 6.5H0ZM2.4 20.1C1.6 19.3 1 18.3917 0.6 17.375C0.2 16.3583 0 15.3207 0 14.262C0 13.204 0.2 12.1667 0.6 11.15C1 10.1333 1.6 9.225 2.4 8.425L7.9 2.925L9.675 4.7L4.725 9.65C5.39167 10.1833 5.8 10.8957 5.95 11.787C6.1 12.679 5.80833 13.5 5.075 14.25L5.775 14.95C6.45833 14.3167 6.846 13.475 6.938 12.425C7.02933 11.375 6.75 10.4583 6.1 9.675L14.6 1.175L16.375 2.95L10.025 9.3L10.725 10L18.5 2.225L20.275 4L12.5 11.775L13.2 12.475L19.9 5.775L21.675 7.55L14.25 14.975L14.95 15.675L20.275 10.35L22.05 12.125L14.075 20.1C13.275 20.9 12.3667 21.5 11.35 21.9C10.3333 22.3 9.296 22.5 8.238 22.5C7.17933 22.5 6.14167 22.3 5.125 21.9C4.10833 21.5 3.2 20.9 2.4 20.1Z" fill="#598576"/>
</svg>
