<svg width="88" height="22" viewBox="0 0 88 22" fill="none" xmlns="http://www.w3.org/2000/svg">
<path d="M37.733 7.95214V6.13062H28.25V8.23657H34.3524L28.25 14.9395V16.7613H37.831V14.6554H31.6654L37.733 7.95214Z" fill="#808080"/>
<path d="M58.48 5.81982C57.1372 5.81982 56.037 6.22669 55.2317 7.00939V6.13086H52.7266V20.6454H55.2317V15.896C56.0353 16.6698 57.1354 17.0723 58.48 17.0723C61.5906 17.0723 63.4474 14.9687 63.4474 11.446C63.4474 7.92339 61.5902 5.81982 58.48 5.81982ZM58.1655 8.00354C60.0983 8.00354 60.9226 9.03315 60.9226 11.4457C60.9226 13.8586 60.0979 14.8882 58.1655 14.8882C56.1913 14.8882 55.2317 13.7621 55.2317 11.4457C55.2313 9.12967 56.1913 8.00354 58.1655 8.00354Z" fill="#808080"/>
<path d="M71.4064 10.3291L69.3234 10.0379C68.1318 9.86974 68.1318 9.321 68.1318 9.05737C68.1318 8.7726 68.1318 7.90634 70.0242 7.90634C71.3415 7.90634 72.1189 8.4411 72.2134 9.41206L72.2538 9.82881H74.7275L74.6961 9.33873C74.5549 7.15604 72.7799 5.80005 70.0639 5.80005C67.3513 5.80005 65.6664 7.09261 65.6664 9.17367C65.6664 10.8884 66.7586 11.9815 68.7383 12.2516L71.0197 12.5817C72.3008 12.7625 72.4081 13.273 72.4081 13.7372C72.4081 14.3753 72.1717 14.966 70.4567 14.966C68.2526 14.966 67.877 13.9244 67.7963 13.0169L67.7586 12.5967H65.4016L65.4106 13.0664C65.4596 15.6123 67.2843 17.0723 70.417 17.0723C74.1165 17.0723 74.8932 15.2166 74.8932 13.6598C74.8932 11.7353 73.7862 10.677 71.4064 10.3291Z" fill="#808080"/>
<path d="M48.6065 6.13062L45.5612 13.6039L45.1369 14.697L42.1171 6.13062H39.0918L43.3529 16.7613H43.5266H44.3361L43.635 18.4614H40.7501V20.6452H43.0837C45.177 20.6452 45.6658 19.6698 46.2875 18.0846L51.1648 6.13062H48.6065Z" fill="#808080"/>
<path d="M85.2424 6.13062L82.1971 13.6039L81.7728 14.697L78.753 6.13062H75.7277L79.9888 16.7613H80.1625H80.9719L80.2708 18.4614H77.386V20.6452H79.7196C81.8129 20.6452 82.3017 19.6698 82.9234 18.0846L87.8007 6.13062H85.2424Z" fill="#808080"/>
<path d="M21.75 9.8064H0.949951V12.1937H21.75V9.8064Z" fill="#808080"/>
<path d="M12.5438 0.600098H10.1565V21.4001H12.5438V0.600098Z" fill="#808080"/>
<path d="M4.84014 2.80216L3.1521 4.49023L17.8595 19.1979L19.5476 17.5098L4.84014 2.80216Z" fill="#808080"/>
<path d="M11.2485 9.41119L3.1521 17.51L4.84038 19.1978L12.9368 11.099L11.2485 9.41119Z" fill="#808080"/>
<path d="M14.9019 9.0403L13.2137 7.35247L17.8597 2.80225L19.5479 4.49008L14.9019 9.0403Z" fill="#808080"/>
</svg>
